<?xml version="1.0" encoding="UTF-8"?>
<svg xmlns="http://www.w3.org/2000/svg" xmlns:xlink="http://www.w3.org/1999/xlink" width="1728pt" height="1295.99994pt" viewBox="0 0 1728 1295.99994" version="1.2">
<defs>
<clipPath id="clip1">
  <path d="M 1262 620 L 1627.933594 620 L 1627.933594 975 L 1262 975 Z M 1262 620 "/>
</clipPath>
<clipPath id="clip2">
  <path d="M 1344 380.839844 L 1442 380.839844 L 1442 503 L 1344 503 Z M 1344 380.839844 "/>
</clipPath>
<clipPath id="clip3">
  <path d="M 1350 380.839844 L 1442 380.839844 L 1442 453 L 1350 453 Z M 1350 380.839844 "/>
</clipPath>
<clipPath id="clip4">
  <path d="M 1000.933594 790 L 1385 790 L 1385 822 L 1000.933594 822 Z M 1000.933594 790 "/>
</clipPath>
<clipPath id="clip5">
  <path d="M 1000.933594 733 L 1443 733 L 1443 880 L 1000.933594 880 Z M 1000.933594 733 "/>
</clipPath>
<clipPath id="clip6">
  <path d="M 1293 821 L 1323 821 L 1323 1295.6875 L 1293 1295.6875 Z M 1293 821 "/>
</clipPath>
<clipPath id="clip7">
  <path d="M 1291 819 L 1325 819 L 1325 1295.6875 L 1291 1295.6875 Z M 1291 819 "/>
</clipPath>
<clipPath id="clip8">
  <path d="M 104 418.515625 L 242 418.515625 L 242 556 L 104 556 Z M 104 418.515625 "/>
</clipPath>
<filter id="alpha" filterUnits="objectBoundingBox" x="0%" y="0%" width="100%" height="100%">
  <feColorMatrix type="matrix" in="SourceGraphic" values="0 0 0 0 1 0 0 0 0 1 0 0 0 0 1 0 0 0 1 0"/>
</filter>
<mask id="mask0">
  <g filter="url(#alpha)">
<rect x="0" y="0" width="1728" height="1295.99994" style="fill:rgb(0%,0%,0%);fill-opacity:0.8784;stroke:none;"/>
  </g>
</mask>
<clipPath id="clip9">
  <rect x="0" y="0" width="261" height="111"/>
</clipPath>
<g id="surface5" clip-path="url(#clip9)">
<path style=" stroke:none;fill-rule:nonzero;fill:rgb(94.898987%,57.249451%,6.669617%);fill-opacity:1;" d="M 228.570312 49.960938 C 227.484375 48.628906 226.347656 46.660156 225.519531 44.507812 C 224.417969 44.878906 223.210938 45.035156 222.003906 44.972656 C 221.269531 48.6875 220.03125 52.5625 218.613281 56.039062 C 217.257812 59.371094 215.222656 62.082031 213 64.859375 L 227.585938 66.761719 C 226.761719 61.507812 226.703125 55.355469 229.039062 50.453125 C 228.871094 50.296875 228.710938 50.136719 228.570312 49.960938 "/>
<path style=" stroke:none;fill-rule:nonzero;fill:rgb(94.898987%,57.249451%,6.669617%);fill-opacity:1;" d="M 191.347656 81.050781 C 191.136719 82.191406 190.925781 83.683594 190.710938 85.535156 L 190.710938 86.28125 C 190.640625 86.496094 190.570312 86.746094 190.5 87.027344 C 190.070312 88.523438 189.289062 90.480469 188.15625 92.898438 C 187.023438 95.390625 185.78125 97.523438 184.433594 99.300781 C 182.945312 101.292969 181.632812 102.46875 180.5 102.824219 C 179.578125 103.109375 178.582031 102.648438 177.519531 101.4375 C 176.457031 100.226562 175.996094 97.949219 176.140625 94.605469 C 176.277344 90.976562 177.09375 87.386719 178.582031 83.828125 C 180 80.199219 181.703125 77.601562 183.691406 76.035156 C 185.460938 74.683594 187.269531 74.542969 189.113281 75.609375 C 190.320312 76.25 190.886719 76.640625 190.816406 76.78125 C 190.886719 76.925781 190.957031 77.246094 191.027344 77.742188 C 191.171875 79.023438 191.277344 79.914062 191.347656 80.414062 C 191.417969 80.414062 191.453125 80.449219 191.453125 80.519531 C 191.382812 80.664062 191.347656 80.839844 191.347656 81.050781 Z M 126.144531 82.652344 C 126.074219 82.582031 126.039062 82.511719 126.039062 82.441406 C 125.753906 81.585938 125.4375 80.839844 125.082031 80.199219 C 124.300781 75.148438 124.019531 69.632812 124.230469 63.65625 C 124.515625 55.332031 125.648438 49.5 127.632812 46.152344 C 128.488281 44.730469 129.300781 44.054688 130.082031 44.125 C 130.648438 44.125 131.074219 44.835938 131.359375 46.261719 C 131.640625 47.1875 131.710938 48.609375 131.570312 50.527344 C 131.570312 51.101562 131.53125 51.953125 131.464844 53.089844 C 131.394531 54.230469 131.359375 55.011719 131.359375 55.4375 L 131.359375 55.96875 C 129.871094 66.289062 128.132812 75.179688 126.144531 82.652344 Z M 119.230469 97.378906 C 117.597656 99.660156 115.652344 101.257812 113.382812 102.183594 C 111.253906 103.035156 109.625 102.683594 108.488281 101.117188 C 107 99.125 106.464844 96.207031 106.890625 92.363281 C 107.246094 88.523438 108.378906 85.039062 110.296875 81.902344 C 112 79.132812 113.699219 77.742188 115.402344 77.742188 C 116.890625 77.742188 118.449219 78.84375 120.085938 81.050781 C 120.085938 81.335938 120.117188 81.621094 120.1875 81.902344 C 120.261719 82.050781 120.683594 84.039062 121.464844 87.882812 C 121.746094 89.449219 122.070312 90.90625 122.421875 92.257812 C 121.359375 94.179688 120.292969 95.886719 119.230469 97.378906 Z M 85.203125 94.761719 C 84.285156 93.800781 83.445312 92.765625 82.6875 91.664062 C 81.074219 89.386719 79.417969 86.054688 78.957031 84.472656 C 78.699219 83.59375 77.960938 77.957031 77.960938 77.957031 L 77.960938 77.636719 C 77.75 75.359375 77.960938 72.015625 78.597656 67.605469 C 79.238281 63.195312 80.195312 59.03125 81.46875 55.117188 C 82.960938 50.632812 84.699219 47.367188 86.679688 45.300781 C 88.527344 43.375 90.546875 42.773438 92.746094 43.484375 C 94.304688 43.980469 95.371094 45.511719 95.9375 48.074219 C 96.433594 50.207031 96.574219 52.910156 96.363281 56.183594 C 96.21875 58.890625 95.601562 62.769531 94.503906 67.816406 C 93.402344 72.871094 92 77.816406 90.300781 82.652344 C 88.675781 87.535156 86.980469 91.566406 85.203125 94.761719 Z M 148.4375 88.484375 C 148.640625 87.714844 148.832031 86.917969 149.019531 86.105469 C 149.859375 83.183594 151.09375 80.640625 152.738281 78.488281 C 154.792969 75.71875 156.78125 74.683594 158.695312 75.394531 C 160.324219 75.894531 161.175781 77.066406 161.246094 78.917969 C 161.390625 81.050781 160.679688 83.328125 159.121094 85.746094 C 157.488281 88.238281 155.574219 89.875 153.375 90.65625 C 151.601562 91.226562 149.863281 91.011719 148.164062 90.015625 C 148.242188 89.492188 148.335938 88.984375 148.4375 88.484375 Z M 238.316406 2.285156 C 222.554688 -2.144531 206.195312 7.082031 201.777344 22.894531 C 198.660156 34.050781 202.328125 45.507812 210.292969 52.84375 L 208.34375 59.800781 L 208.347656 59.800781 L 203.773438 76.164062 C 203.539062 77.015625 203.078125 78.628906 205.082031 79.191406 L 213.027344 81.425781 C 212.847656 81.914062 212.109375 84.199219 210.8125 88.308594 C 209.820312 91.726562 208.863281 94.464844 207.941406 96.527344 C 206.667969 99.300781 205.390625 101.257812 204.113281 102.398438 C 202.90625 103.460938 201.59375 103.820312 200.179688 103.460938 C 198.617188 103.035156 197.445312 101.863281 196.664062 99.941406 C 196.097656 98.234375 195.816406 95.957031 195.816406 93.113281 C 195.816406 92.898438 195.886719 92.117188 196.027344 90.761719 C 196.097656 89.554688 196.203125 88.34375 196.347656 87.132812 C 196.347656 87.066406 196.558594 85.890625 196.984375 83.613281 L 197.09375 83.082031 C 197.445312 82.371094 197.625 81.941406 197.625 81.800781 C 197.90625 80.945312 198.011719 80.199219 197.941406 79.558594 C 197.875 78.703125 197.550781 77.992188 196.984375 77.425781 C 196.914062 77.351562 196.84375 77.316406 196.773438 77.316406 L 196.773438 76.996094 C 196.628906 76.074219 196.453125 75.289062 196.242188 74.648438 C 195.605469 73.226562 194.148438 71.839844 191.878906 70.484375 C 187.839844 68.28125 183.9375 68.601562 180.179688 71.449219 C 177.480469 73.601562 175.222656 76.917969 173.402344 81.375 C 173.015625 81.675781 172.714844 82.0625 172.523438 82.546875 C 172.023438 83.898438 171.457031 85.535156 170.820312 87.453125 C 170.183594 89.378906 169.578125 91.066406 169.011719 92.523438 C 168.441406 93.984375 167.804688 95.390625 167.097656 96.738281 C 165.113281 100.511719 162.347656 102.824219 158.800781 103.679688 C 154.476562 104.671875 151.421875 103.855469 149.652344 101.222656 C 148.804688 99.941406 148.273438 98.269531 148.058594 96.207031 C 150.398438 96.917969 152.773438 96.886719 155.183594 96.101562 C 158.65625 94.960938 161.566406 92.578125 163.90625 88.949219 C 166.175781 85.464844 167.203125 82.011719 166.988281 78.597656 C 166.777344 74.1875 164.648438 71.269531 160.609375 69.847656 C 158.195312 69.066406 155.929688 69.1875 153.800781 70.21875 C 151.675781 71.25 149.792969 72.832031 148.164062 74.96875 C 147.097656 76.367188 146.183594 77.886719 145.398438 79.519531 L 145.242188 79.609375 C 144.5625 80.078125 144.15625 80.695312 144.015625 81.476562 C 142.171875 91.582031 139.191406 98.234375 135.082031 101.4375 C 134.441406 101.933594 133.910156 102.183594 133.484375 102.183594 C 133.199219 102.183594 132.917969 102.042969 132.632812 101.753906 C 131.5 100.761719 130.398438 98.765625 129.335938 95.777344 L 128.488281 92.898438 C 133.167969 83.292969 137.101562 70.273438 140.292969 53.835938 C 140.503906 53.410156 140.613281 53.019531 140.613281 52.660156 C 140.613281 52.09375 140.667969 51.171875 140.769531 49.890625 C 140.878906 48.609375 140.929688 47.644531 140.929688 47.007812 C 141.070312 44.300781 140.894531 42.132812 140.398438 40.496094 C 139.761719 38.574219 138.820312 37.046875 137.578125 35.910156 C 136.339844 34.769531 134.867188 34.164062 133.167969 34.09375 C 130.117188 33.878906 127.351562 35.300781 124.871094 38.359375 C 121.109375 42.988281 118.980469 50.421875 118.488281 60.664062 C 118.34375 64.652344 118.449219 68.671875 118.804688 72.726562 C 117.671875 72.230469 116.535156 71.980469 115.402344 71.980469 C 111.574219 72.050781 108.242188 74.328125 105.402344 78.808594 C 103.0625 82.652344 101.644531 86.957031 101.148438 91.726562 C 100.710938 96.511719 101.359375 100.402344 103.089844 103.40625 C 100.984375 103.007812 98.957031 102.4375 97.230469 101.964844 C 94.519531 101.226562 91.96875 100.046875 89.660156 98.515625 C 91.804688 94.863281 93.824219 90.226562 95.726562 84.574219 C 97.496094 79.523438 98.949219 74.328125 100.085938 68.996094 C 101.21875 63.65625 101.894531 59.53125 102.109375 56.613281 C 102.390625 52.699219 102.214844 49.425781 101.578125 46.792969 C 100.507812 42.097656 98.136719 39.144531 94.449219 37.933594 C 90.050781 36.515625 86.082031 37.652344 82.535156 41.351562 C 79.980469 43.980469 77.820312 47.96875 76.046875 53.304688 C 74.628906 57.574219 73.582031 62.109375 72.910156 66.910156 C 72.234375 71.714844 72.007812 75.429688 72.21875 78.0625 L 72.21875 78.171875 C 72.21875 78.171875 72.6875 81.925781 73.285156 83.828125 C 73.792969 85.449219 76.671875 93.070312 78.84375 95.882812 C 79.832031 97.15625 80.882812 98.371094 82.039062 99.480469 C 80.632812 101.132812 79.273438 102.113281 77.960938 102.398438 C 76.542969 102.683594 75.230469 102.148438 74.027344 100.796875 L 73.835938 100.953125 C 71.273438 98.171875 70.144531 93.59375 68.628906 90.320312 C 66.289062 85.265625 62.957031 80.222656 59.347656 75.996094 C 54.785156 70.644531 47.9375 68.945312 41.007812 68.421875 L 41.007812 65.414062 L 34.972656 65.414062 L 34.972656 59.988281 L 24.648438 56.632812 L 24.648438 86.042969 L 34.972656 82.835938 L 34.972656 77.25 L 41.007812 77.25 L 41.007812 74.078125 C 47.316406 74.71875 53.167969 76.652344 57.378906 82.410156 C 60.308594 86.40625 62.929688 90.960938 64.882812 95.519531 C 66.386719 99.023438 67.792969 103.398438 70.902344 105.832031 C 71.082031 105.972656 71.261719 106.082031 71.449219 106.171875 C 73.695312 107.964844 76.292969 108.558594 79.238281 107.945312 C 81.753906 107.433594 84.167969 105.792969 86.5 103.046875 C 89.328125 104.921875 92.457031 106.375 95.75 107.34375 C 101.992188 109.183594 110.992188 111.117188 116.753906 107.066406 C 116.871094 106.980469 116.96875 106.882812 117.074219 106.789062 C 119.722656 105.417969 122.007812 103.421875 123.914062 100.796875 L 124.65625 99.621094 C 125.863281 102.539062 127.242188 104.707031 128.804688 106.132812 C 130.226562 107.339844 131.78125 107.945312 133.484375 107.945312 C 135.1875 107.945312 136.925781 107.269531 138.699219 105.917969 C 140.367188 104.625 141.878906 102.953125 143.234375 100.90625 C 143.679688 102.171875 144.246094 103.351562 144.972656 104.425781 C 148.164062 109.261719 153.199219 110.863281 160.078125 109.226562 C 164.742188 108.164062 168.421875 105.546875 171.121094 101.367188 C 171.570312 102.820312 172.207031 104.0625 173.054688 105.0625 C 175.75 108.269531 178.761719 109.371094 182.09375 108.375 C 184.503906 107.664062 186.8125 105.8125 189.011719 102.824219 C 189.648438 102.042969 190.246094 101.152344 190.816406 100.15625 C 190.957031 100.796875 191.136719 101.367188 191.347656 101.863281 C 192.691406 105.636719 195.140625 108.015625 198.6875 109.011719 C 202.019531 109.9375 205.070312 109.191406 207.835938 106.773438 C 209.820312 105.0625 211.59375 102.46875 213.152344 98.980469 C 214.214844 96.5625 215.28125 93.574219 216.34375 90.015625 C 217.621094 85.820312 218.296875 83.578125 218.367188 83.292969 C 218.410156 83.179688 218.433594 83.066406 218.464844 82.957031 L 226.871094 85.320312 C 228.898438 85.890625 229.316406 84.265625 229.550781 83.414062 L 230.554688 79.835938 L 203.765625 76.339844 L 204.546875 73.53125 L 231.335938 77.03125 L 231.871094 75.121094 L 205.082031 71.625 L 205.863281 68.816406 L 232.652344 72.3125 L 233.1875 70.402344 L 206.402344 66.90625 L 207.183594 64.097656 L 211.972656 64.726562 C 214.144531 62.023438 216.3125 59.332031 217.519531 56.027344 C 218.585938 53.117188 219.640625 50.09375 220.417969 47.097656 C 220.601562 46.394531 220.796875 45.648438 220.957031 44.882812 C 219.335938 44.648438 217.773438 44.0625 216.511719 43.164062 C 214.085938 41.429688 214.199219 36.183594 217.707031 36.015625 C 221.6875 35.824219 222.632812 41.59375 222.121094 44.386719 C 222.101562 44.484375 222.078125 44.585938 222.0625 44.679688 C 223.226562 44.734375 224.378906 44.527344 225.347656 44.03125 C 224.160156 40.714844 223.761719 37.046875 225.476562 34.601562 C 226.453125 33.210938 231.121094 29.285156 232.535156 32.566406 C 234.371094 36.820312 230.460938 42.136719 226.578125 44.078125 C 226.648438 44.277344 226.714844 44.476562 226.785156 44.675781 C 227.335938 46.167969 228.179688 48.203125 229.414062 49.691406 C 230.089844 48.457031 230.925781 47.308594 231.960938 46.292969 C 233.207031 45.074219 234.65625 44.359375 236.375 44.972656 C 238.855469 45.859375 239.089844 49.078125 237.332031 50.664062 C 235.417969 52.390625 232.171875 52.441406 229.953125 51.132812 C 229.722656 51.65625 229.535156 52.117188 229.417969 52.460938 C 227.816406 57.160156 227.90625 62.082031 228.691406 66.910156 L 233.96875 67.597656 L 234.125 67.050781 L 236.070312 60.09375 C 246.671875 57.980469 255.738281 50.109375 258.855469 38.949219 C 263.273438 23.132812 254.082031 6.71875 238.316406 2.285156 "/>
<path style=" stroke:none;fill-rule:nonzero;fill:rgb(94.898987%,57.249451%,6.669617%);fill-opacity:1;" d="M 231.015625 38.265625 C 231.53125 37.179688 233.078125 30.078125 229.378906 32.089844 C 225.074219 34.429688 225.113281 39.230469 226.371094 43.414062 C 228.285156 42.132812 230.027344 40.324219 231.015625 38.265625 "/>
<path style=" stroke:none;fill-rule:nonzero;fill:rgb(94.898987%,57.249451%,6.669617%);fill-opacity:1;" d="M 216.164062 38.390625 C 215.15625 41.734375 217.929688 44.027344 221.019531 44.566406 C 221.359375 42.78125 221.449219 40.925781 220.625 39.324219 C 219.660156 37.433594 217.179688 35.003906 216.164062 38.390625 "/>
<path style=" stroke:none;fill-rule:nonzero;fill:rgb(94.898987%,57.249451%,6.669617%);fill-opacity:1;" d="M 236.835938 46.390625 C 234.503906 43.363281 231.6875 47.542969 230.238281 50.535156 C 231.359375 51.511719 232.742188 52.011719 234.445312 51.457031 C 236.597656 50.753906 238.570312 48.636719 236.835938 46.390625 "/>
<path style=" stroke:none;fill-rule:nonzero;fill:rgb(94.898987%,57.249451%,6.669617%);fill-opacity:1;" d="M 11.484375 60.265625 L 11.484375 62.453125 L 2.558594 62.453125 C 1.699219 62.453125 1.003906 63.15625 1.003906 64.015625 C 1.003906 64.875 1.699219 65.578125 2.558594 65.578125 L 11.484375 65.578125 L 11.484375 77.085938 L 2.558594 77.085938 C 1.699219 77.085938 1.003906 77.78125 1.003906 78.648438 C 1.003906 79.511719 1.699219 80.207031 2.558594 80.207031 L 11.484375 80.207031 L 11.484375 82.402344 C 11.484375 84.582031 13.246094 86.34375 15.417969 86.34375 L 22.84375 86.34375 L 22.84375 56.316406 L 15.417969 56.316406 C 13.246094 56.316406 11.484375 58.082031 11.484375 60.265625 "/>
</g>
<mask id="mask1">
  <g filter="url(#alpha)">
<rect x="0" y="0" width="1728" height="1295.99994" style="fill:rgb(0%,0%,0%);fill-opacity:0.4196;stroke:none;"/>
  </g>
</mask>
<clipPath id="clip11">
  <path d="M 45.488281 93.605469 L 59.28125 93.605469 L 59.28125 107.269531 L 45.488281 107.269531 Z M 45.488281 93.605469 "/>
</clipPath>
<clipPath id="clip12">
  <path d="M 88 49 L 102.554688 49 L 102.554688 55 L 88 55 Z M 88 49 "/>
</clipPath>
<clipPath id="clip13">
  <path d="M 0.554688 49 L 16 49 L 16 55 L 0.554688 55 Z M 0.554688 49 "/>
</clipPath>
<clipPath id="clip14">
  <path d="M 49 0.878906 L 55 0.878906 L 55 16 L 49 16 Z M 49 0.878906 "/>
</clipPath>
<clipPath id="clip10">
  <rect x="0" y="0" width="103" height="109"/>
</clipPath>
<g id="surface8" clip-path="url(#clip10)">
<path style=" stroke:none;fill-rule:nonzero;fill:rgb(92.549133%,75.689697%,4.708862%);fill-opacity:1;" d="M 78.277344 51.621094 C 78.277344 37.144531 66.671875 25.410156 52.355469 25.410156 C 38.039062 25.410156 26.433594 37.144531 26.433594 51.621094 C 26.433594 59.703125 30.050781 66.925781 35.734375 71.734375 C 37.125 74.515625 38.515625 77.886719 38.921875 80.894531 C 39.804688 87.480469 52.355469 86.75 52.355469 86.75 C 52.355469 86.75 64.90625 87.480469 65.789062 80.894531 C 66.195312 77.886719 67.585938 74.515625 68.976562 71.734375 C 74.660156 66.925781 78.277344 59.699219 78.277344 51.621094 "/>
<path style=" stroke:none;fill-rule:nonzero;fill:rgb(94.898987%,57.249451%,6.669617%);fill-opacity:1;" d="M 61.730469 66.929688 C 59.753906 66.929688 58.152344 65.34375 58.152344 63.386719 C 58.152344 61.429688 59.753906 59.839844 61.730469 59.839844 C 63.703125 59.839844 65.304688 61.429688 65.304688 63.386719 C 65.304688 65.34375 63.703125 66.929688 61.730469 66.929688 Z M 57.769531 66.972656 L 57.882812 65.839844 C 58.164062 66.273438 58.519531 66.65625 58.933594 66.972656 Z M 45.777344 66.972656 C 46.175781 66.667969 46.519531 66.304688 46.796875 65.886719 L 46.90625 66.972656 Z M 39.40625 63.386719 C 39.40625 61.429688 41.007812 59.839844 42.980469 59.839844 C 44.957031 59.839844 46.558594 61.429688 46.558594 63.386719 C 46.558594 65.34375 44.957031 66.929688 42.980469 66.929688 C 41.007812 66.929688 39.40625 65.34375 39.40625 63.386719 Z M 61.730469 58.847656 C 59.203125 58.847656 57.152344 60.878906 57.152344 63.386719 C 57.152344 63.414062 57.15625 63.4375 57.15625 63.460938 L 56.804688 66.972656 L 47.871094 66.972656 L 47.542969 63.695312 C 47.550781 63.59375 47.558594 63.492188 47.558594 63.386719 C 47.558594 60.878906 45.507812 58.847656 42.980469 58.847656 C 40.453125 58.847656 38.40625 60.878906 38.40625 63.386719 C 38.40625 65.894531 40.453125 67.925781 42.980469 67.925781 L 47.003906 67.925781 L 48.898438 86.773438 L 49.851562 86.679688 L 47.96875 67.925781 L 56.707031 67.925781 L 54.824219 86.679688 L 55.777344 86.773438 L 57.671875 67.925781 L 60.992188 67.925781 L 60.992188 67.859375 C 61.230469 67.898438 61.476562 67.925781 61.730469 67.925781 C 64.257812 67.925781 66.304688 65.894531 66.304688 63.386719 C 66.304688 60.878906 64.257812 58.847656 61.730469 58.847656 "/>
<g clip-path="url(#clip11)" clip-rule="nonzero">
<path style=" stroke:none;fill-rule:nonzero;fill:rgb(19.60907%,26.269531%,35.688782%);fill-opacity:1;" d="M 59.222656 100.402344 C 59.253906 104.160156 56.207031 107.238281 52.414062 107.269531 C 48.625 107.300781 45.523438 104.28125 45.488281 100.519531 C 45.457031 96.761719 48.503906 93.6875 52.296875 93.652344 C 56.085938 93.621094 59.1875 96.640625 59.222656 100.402344 "/>
</g>
<path style=" stroke:none;fill-rule:nonzero;fill:rgb(74.119568%,76.078796%,77.249146%);fill-opacity:1;" d="M 63.132812 85.019531 L 63.132812 100.023438 C 63.132812 101.882812 61.613281 103.390625 59.734375 103.390625 L 44.972656 103.390625 C 43.101562 103.390625 41.578125 101.882812 41.578125 100.023438 L 41.578125 85.019531 L 63.132812 85.019531 "/>
<path style=" stroke:none;fill-rule:nonzero;fill:rgb(93.728638%,95.689392%,95.689392%);fill-opacity:1;" d="M 60.445312 97.019531 L 44.265625 97.019531 C 42.207031 97.019531 40.542969 97.773438 40.542969 98.703125 C 40.542969 99.601562 42.105469 100.339844 44.074219 100.382812 C 44.132812 100.382812 44.199219 100.386719 44.265625 100.386719 L 60.445312 100.386719 C 60.511719 100.386719 60.578125 100.382812 60.636719 100.382812 C 62.605469 100.339844 64.167969 99.601562 64.167969 98.703125 C 64.167969 97.773438 62.503906 97.019531 60.445312 97.019531 "/>
<path style=" stroke:none;fill-rule:nonzero;fill:rgb(93.728638%,95.689392%,95.689392%);fill-opacity:1;" d="M 60.445312 92.425781 L 44.265625 92.425781 C 42.207031 92.425781 40.542969 93.179688 40.542969 94.109375 C 40.542969 95.011719 42.105469 95.746094 44.074219 95.792969 C 44.132812 95.792969 44.199219 95.792969 44.265625 95.792969 L 60.445312 95.792969 C 60.511719 95.792969 60.578125 95.792969 60.636719 95.792969 C 62.605469 95.746094 64.167969 95.011719 64.167969 94.109375 C 64.167969 93.179688 62.503906 92.425781 60.445312 92.425781 "/>
<path style=" stroke:none;fill-rule:nonzero;fill:rgb(93.728638%,95.689392%,95.689392%);fill-opacity:1;" d="M 60.445312 87.835938 L 44.265625 87.835938 C 42.207031 87.835938 40.542969 88.589844 40.542969 89.519531 C 40.542969 90.417969 42.105469 91.15625 44.074219 91.199219 C 44.132812 91.199219 44.199219 91.203125 44.265625 91.203125 L 60.445312 91.203125 C 60.511719 91.203125 60.578125 91.199219 60.636719 91.199219 C 62.605469 91.15625 64.167969 90.417969 64.167969 89.519531 C 64.167969 88.589844 62.503906 87.835938 60.445312 87.835938 "/>
<path style=" stroke:none;fill-rule:nonzero;fill:rgb(92.549133%,75.689697%,4.708862%);fill-opacity:1;" d="M 88.46875 84.171875 L 82.128906 77.609375 C 81.324219 76.777344 79.90625 76.828125 78.964844 77.71875 C 78.050781 78.585938 77.917969 79.929688 78.644531 80.769531 C 78.667969 80.796875 78.691406 80.824219 78.714844 80.851562 L 85.054688 87.414062 C 85.082031 87.441406 85.105469 87.464844 85.132812 87.488281 C 85.949219 88.242188 87.308594 88.167969 88.21875 87.304688 C 89.160156 86.40625 89.273438 85.007812 88.46875 84.171875 "/>
<g clip-path="url(#clip12)" clip-rule="nonzero">
<path style=" stroke:none;fill-rule:nonzero;fill:rgb(92.549133%,75.689697%,4.708862%);fill-opacity:1;" d="M 100.410156 49.378906 L 90.355469 49.730469 C 89.078125 49.777344 88.078125 50.859375 88.125 52.152344 C 88.167969 53.402344 89.175781 54.394531 90.402344 54.414062 C 90.441406 54.414062 90.480469 54.414062 90.519531 54.410156 L 100.578125 54.058594 C 100.617188 54.058594 100.660156 54.054688 100.695312 54.054688 C 101.917969 53.949219 102.851562 52.890625 102.808594 51.636719 C 102.761719 50.34375 101.6875 49.332031 100.410156 49.378906 "/>
</g>
<path style=" stroke:none;fill-rule:nonzero;fill:rgb(92.549133%,75.689697%,4.708862%);fill-opacity:1;" d="M 84.828125 16.058594 L 77.398438 22.792969 C 76.457031 23.648438 76.40625 25.117188 77.285156 26.070312 C 78.136719 26.996094 79.550781 27.101562 80.496094 26.328125 C 80.527344 26.300781 80.558594 26.277344 80.585938 26.25 L 88.011719 19.515625 C 88.042969 19.488281 88.070312 19.460938 88.101562 19.4375 C 88.960938 18.570312 88.980469 17.164062 88.128906 16.238281 C 87.25 15.285156 85.769531 15.203125 84.828125 16.058594 "/>
<path style=" stroke:none;fill-rule:nonzero;fill:rgb(92.549133%,75.689697%,4.708862%);fill-opacity:1;" d="M 14.976562 84.332031 L 21.316406 77.769531 C 22.121094 76.933594 23.535156 76.984375 24.476562 77.878906 C 25.390625 78.746094 25.523438 80.085938 24.800781 80.929688 C 24.773438 80.953125 24.75 80.980469 24.726562 81.007812 L 18.386719 87.570312 C 18.363281 87.597656 18.335938 87.621094 18.3125 87.648438 C 17.496094 88.402344 16.136719 88.328125 15.222656 87.460938 C 14.28125 86.566406 14.171875 85.164062 14.976562 84.332031 "/>
<g clip-path="url(#clip13)" clip-rule="nonzero">
<path style=" stroke:none;fill-rule:nonzero;fill:rgb(92.549133%,75.689697%,4.708862%);fill-opacity:1;" d="M 3.03125 49.535156 L 13.089844 49.886719 C 14.363281 49.933594 15.363281 51.019531 15.316406 52.308594 C 15.273438 53.5625 14.265625 54.550781 13.039062 54.570312 C 13 54.570312 12.960938 54.570312 12.921875 54.570312 L 2.863281 54.21875 C 2.824219 54.214844 2.785156 54.210938 2.746094 54.210938 C 1.523438 54.105469 0.589844 53.046875 0.636719 51.796875 C 0.679688 50.503906 1.753906 49.492188 3.03125 49.535156 "/>
</g>
<path style=" stroke:none;fill-rule:nonzero;fill:rgb(92.549133%,75.689697%,4.708862%);fill-opacity:1;" d="M 18.617188 16.21875 L 26.042969 22.949219 C 26.988281 23.804688 27.039062 25.273438 26.15625 26.226562 C 25.304688 27.152344 23.890625 27.257812 22.945312 26.484375 C 22.914062 26.460938 22.886719 26.433594 22.855469 26.40625 L 15.429688 19.675781 C 15.398438 19.648438 15.371094 19.621094 15.34375 19.59375 C 14.484375 18.726562 14.460938 17.320312 15.3125 16.398438 C 16.195312 15.441406 17.671875 15.363281 18.617188 16.21875 "/>
<g clip-path="url(#clip14)" clip-rule="nonzero">
<path style=" stroke:none;fill-rule:nonzero;fill:rgb(92.549133%,75.689697%,4.708862%);fill-opacity:1;" d="M 49.914062 3.230469 L 50.074219 13.210938 C 50.09375 14.476562 51.167969 15.488281 52.472656 15.46875 C 53.734375 15.449219 54.753906 14.46875 54.796875 13.253906 C 54.796875 13.214844 54.796875 13.175781 54.796875 13.136719 L 54.636719 3.15625 C 54.636719 3.117188 54.632812 3.078125 54.632812 3.039062 C 54.550781 1.828125 53.503906 0.878906 52.238281 0.898438 C 50.933594 0.921875 49.894531 1.964844 49.914062 3.230469 "/>
</g>
</g>
<mask id="mask2">
  <g filter="url(#alpha)">
<rect x="0" y="0" width="1728" height="1295.99994" style="fill:rgb(0%,0%,0%);fill-opacity:0.6;stroke:none;"/>
  </g>
</mask>
<clipPath id="clip16">
  <path d="M 0.800781 1.117188 L 75.449219 1.117188 L 75.449219 75.769531 L 0.800781 75.769531 Z M 0.800781 1.117188 "/>
</clipPath>
<clipPath id="clip15">
  <rect x="0" y="0" width="77" height="78"/>
</clipPath>
<g id="surface11" clip-path="url(#clip15)">
<g clip-path="url(#clip16)" clip-rule="nonzero">
<path style=" stroke:none;fill-rule:evenodd;fill:rgb(92.549133%,94.119263%,94.509888%);fill-opacity:1;" d="M 75.449219 38.445312 C 75.449219 17.835938 58.730469 1.117188 38.125 1.117188 C 17.519531 1.117188 0.800781 17.835938 0.800781 38.445312 C 0.800781 59.050781 17.519531 75.769531 38.125 75.769531 C 58.730469 75.769531 75.449219 59.050781 75.449219 38.445312 Z M 75.449219 38.445312 "/>
<path style=" stroke:none;fill-rule:nonzero;fill:rgb(90.589905%,29.798889%,23.529053%);fill-opacity:1;" d="M 75.449219 38.445312 C 75.449219 59.050781 58.730469 75.769531 38.125 75.769531 C 17.519531 75.769531 0.800781 59.050781 0.800781 38.445312 C 0.800781 17.835938 17.519531 1.117188 38.125 1.117188 C 58.730469 1.117188 75.449219 17.835938 75.449219 38.445312 Z M 7.019531 38.445312 C 7.019531 55.617188 20.953125 69.546875 38.125 69.546875 C 55.296875 69.546875 69.230469 55.617188 69.230469 38.445312 C 69.230469 21.273438 55.296875 7.339844 38.125 7.339844 C 20.953125 7.339844 7.019531 21.273438 7.019531 38.445312 Z M 7.019531 38.445312 "/>
</g>
<path style=" stroke:none;fill-rule:evenodd;fill:rgb(17.248535%,24.308777%,31.369019%);fill-opacity:1;" d="M 36.570312 13.558594 L 39.679688 13.558594 L 39.679688 38.445312 L 36.570312 38.445312 Z M 36.570312 13.558594 "/>
<path style=" stroke:none;fill-rule:evenodd;fill:rgb(17.248535%,24.308777%,31.369019%);fill-opacity:1;" d="M 36.570312 36.886719 L 55.234375 36.886719 L 55.234375 40 L 36.570312 40 Z M 36.570312 36.886719 "/>
</g>
<mask id="mask3">
  <g filter="url(#alpha)">
<rect x="0" y="0" width="1728" height="1295.99994" style="fill:rgb(0%,0%,0%);fill-opacity:0.4275;stroke:none;"/>
  </g>
</mask>
<clipPath id="clip18">
  <path d="M 55 68 L 93 68 L 93 91.832031 L 55 91.832031 Z M 55 68 "/>
</clipPath>
<clipPath id="clip17">
  <rect x="0" y="0" width="115" height="93"/>
</clipPath>
<g id="surface14" clip-path="url(#clip17)">
<g clip-path="url(#clip18)" clip-rule="nonzero">
<path style=" stroke:none;fill-rule:nonzero;fill:rgb(91.758728%,34.899902%,43.139648%);fill-opacity:1;" d="M 92.699219 74.585938 C 92.707031 75.46875 92.480469 76.621094 92.246094 77.570312 C 90.59375 84.257812 83.265625 91.761719 72.953125 91.078125 C 63.605469 90.460938 55.992188 85.960938 55.992188 79.648438 C 55.992188 73.335938 63.585938 68.214844 72.953125 68.214844 C 82.320312 68.214844 92.640625 68.273438 92.699219 74.585938 Z M 92.699219 74.585938 "/>
</g>
<path style=" stroke:none;fill-rule:nonzero;fill:rgb(86.669922%,18.03894%,26.669312%);fill-opacity:1;" d="M 72.953125 69.277344 C 67.921875 69.277344 56.441406 70.671875 53.804688 70.671875 C 49.152344 70.671875 45.375 73.601562 45.375 77.21875 C 45.375 78.957031 46.265625 80.53125 47.6875 81.703125 C 47.6875 81.703125 50.8125 84.847656 56.445312 83.339844 C 58.90625 82.679688 62.917969 77.769531 69.972656 76.992188 C 73.488281 76.601562 80.074219 79.328125 91.644531 79.394531 C 92.140625 78.324219 92.246094 77.578125 92.246094 77.578125 C 92.246094 71.257812 82.320312 69.277344 72.953125 69.277344 Z M 72.953125 69.277344 "/>
<path style=" stroke:none;fill-rule:nonzero;fill:rgb(95.689392%,67.059326%,72.938538%);fill-opacity:1;" d="M 92.246094 77.570312 C 92.246094 77.570312 99.03125 76.191406 103.25 70.625 C 108.171875 64.128906 107.523438 57.179688 107.523438 57.179688 C 112.507812 47.828125 105.96875 39.058594 105.96875 39.058594 C 105.320312 29.1875 99.238281 25.097656 99.238281 25.097656 C 95.285156 15.679688 86.546875 13.148438 86.546875 13.148438 C 79.6875 5.097656 67.515625 5.355469 67.515625 5.355469 C 67.515625 5.355469 56.109375 1.164062 40.457031 5.875 C 37.867188 6.65625 29.191406 8.472656 22.847656 12.371094 C 2.847656 24.652344 1.332031 43.804688 1.613281 46.917969 C 3.164062 64.324219 15.335938 67.441406 23.105469 69.257812 C 24.914062 74.191406 31.585938 83.285156 43.558594 79.910156 C 58.320312 77.3125 64.535156 72.894531 68.160156 72.894531 C 71.789062 72.894531 81.886719 76.792969 92.246094 77.570312 Z M 92.246094 77.570312 "/>
<path style=" stroke:none;fill-rule:nonzero;fill:rgb(91.758728%,34.899902%,43.139648%);fill-opacity:1;" d="M 54.914062 49.585938 C 62.148438 45.675781 66.070312 46.039062 69.53125 46.355469 C 70.632812 46.453125 71.671875 46.53125 72.726562 46.527344 C 78.890625 46.386719 83.886719 43.78125 86.09375 41.257812 C 86.660156 40.609375 86.59375 39.628906 85.953125 39.058594 C 85.3125 38.488281 84.332031 38.546875 83.757812 39.195312 C 82.054688 41.140625 77.855469 43.289062 72.65625 43.410156 C 71.722656 43.4375 70.789062 43.34375 69.816406 43.253906 C 66.105469 42.90625 61.492188 42.484375 53.4375 46.84375 C 51.371094 47.964844 48.539062 48.378906 45.46875 48.691406 C 38.640625 38.804688 42.75 30.195312 43.925781 28.144531 C 44.039062 28.148438 44.152344 28.1875 44.269531 28.1875 C 45.511719 28.1875 46.761719 27.882812 47.890625 27.238281 C 48.636719 26.816406 48.902344 25.863281 48.480469 25.117188 C 48.058594 24.367188 47.109375 24.101562 46.363281 24.527344 C 44.375 25.65625 41.757812 25.003906 40.519531 23.070312 C 40.058594 22.34375 39.097656 22.132812 38.378906 22.601562 C 37.65625 23.066406 37.445312 24.027344 37.90625 24.75 C 38.644531 25.90625 39.683594 26.777344 40.855469 27.359375 C 39.234375 30.660156 36.160156 39.332031 42.007812 49.027344 C 37.894531 49.433594 33.773438 50.015625 30.550781 52.101562 C 28.46875 53.449219 26.339844 55.417969 24.714844 57.6875 C 22.757812 57.347656 15.601562 55.582031 14.351562 47.613281 C 15.128906 47.007812 15.757812 46.210938 16.144531 45.226562 C 16.464844 44.425781 16.070312 43.519531 15.273438 43.203125 C 14.472656 42.886719 13.574219 43.277344 13.257812 44.078125 C 12.980469 44.78125 12.480469 45.292969 11.84375 45.515625 C 11.21875 45.742188 10.507812 45.664062 9.847656 45.296875 C 9.09375 44.878906 8.152344 45.15625 7.734375 45.902344 C 7.316406 46.652344 7.589844 47.605469 8.335938 48.023438 C 9.21875 48.515625 10.164062 48.765625 11.101562 48.765625 C 11.21875 48.765625 11.328125 48.710938 11.441406 48.707031 C 12.921875 56.226562 18.847656 59.53125 23.039062 60.53125 C 22.492188 61.742188 22.121094 62.988281 22.011719 64.25 C 21.933594 65.101562 22.566406 65.863281 23.421875 65.9375 L 23.5625 65.945312 C 24.355469 65.945312 25.035156 65.335938 25.109375 64.523438 C 25.445312 60.742188 29.039062 56.792969 32.234375 54.71875 C 35.230469 52.78125 39.613281 52.375 43.859375 51.976562 C 47.976562 51.601562 51.867188 51.238281 54.914062 49.585938 Z M 94.894531 44.898438 C 94.488281 45.652344 94.769531 46.601562 95.515625 47.007812 C 95.753906 47.140625 96.011719 47.203125 96.261719 47.203125 C 96.808594 47.203125 97.339844 46.914062 97.625 46.394531 C 97.683594 46.289062 103.347656 35.644531 92.742188 28.488281 C 92.035156 28.015625 91.066406 28.199219 90.585938 28.914062 C 90.105469 29.625 90.296875 30.597656 91.007812 31.078125 C 99.222656 36.617188 95.074219 44.5625 94.894531 44.898438 Z M 30.488281 19.730469 C 30.972656 19.730469 31.449219 19.503906 31.75 19.082031 C 36.253906 12.792969 42.496094 14.945312 42.757812 15.042969 C 43.5625 15.335938 44.449219 14.925781 44.746094 14.121094 C 45.046875 13.3125 44.636719 12.417969 43.832031 12.121094 C 40.847656 11.011719 33.957031 10.660156 29.226562 17.261719 C 28.726562 17.957031 28.882812 18.933594 29.578125 19.4375 C 29.855469 19.636719 30.171875 19.730469 30.488281 19.730469 Z M 71.109375 13.84375 C 78.023438 13.28125 81.167969 18.308594 81.308594 18.542969 C 81.601562 19.039062 82.117188 19.3125 82.648438 19.3125 C 82.917969 19.3125 83.191406 19.242188 83.433594 19.097656 C 84.175781 18.660156 84.421875 17.707031 83.992188 16.964844 C 83.824219 16.679688 79.828125 10.050781 70.867188 10.734375 C 70.011719 10.800781 69.375 11.550781 69.4375 12.414062 C 69.507812 13.269531 70.28125 13.921875 71.109375 13.84375 Z M 99.542969 59.390625 C 98.777344 59.347656 97.933594 59.957031 97.867188 60.816406 C 97.859375 60.871094 97.367188 66.175781 91.929688 67.96875 C 91.117188 68.234375 90.671875 69.113281 90.941406 69.933594 C 91.152344 70.589844 91.765625 71.007812 92.417969 71.007812 C 92.582031 71.007812 92.742188 70.980469 92.902344 70.929688 C 100.273438 68.503906 100.9375 61.378906 100.964844 61.074219 C 101.03125 60.214844 100.394531 59.460938 99.542969 59.390625 Z M 99.542969 59.390625 "/>
<path style=" stroke:none;fill-rule:nonzero;fill:rgb(91.758728%,34.899902%,43.139648%);fill-opacity:1;" d="M 22.628906 44.242188 C 22.40625 45.078125 22.894531 45.929688 23.726562 46.15625 C 23.859375 46.191406 23.996094 46.207031 24.128906 46.207031 C 24.816406 46.207031 25.441406 45.75 25.628906 45.054688 C 26.21875 42.839844 28.507812 41.417969 30.761719 41.894531 C 31.601562 42.066406 32.421875 41.53125 32.601562 40.6875 C 32.777344 39.84375 32.238281 39.019531 31.398438 38.839844 C 30.074219 38.5625 28.742188 38.691406 27.519531 39.109375 C 23.894531 32.894531 24.601562 26.765625 24.609375 26.699219 C 24.722656 25.847656 24.125 25.066406 23.277344 24.949219 C 22.433594 24.84375 21.648438 25.429688 21.53125 26.277344 C 21.492188 26.582031 20.660156 33.5 24.835938 40.664062 C 23.796875 41.601562 23.007812 42.824219 22.628906 44.242188 Z M 57.367188 36.542969 C 58.632812 35.367188 60.660156 35.390625 61.886719 36.589844 C 62.191406 36.882812 62.582031 37.03125 62.972656 37.03125 C 63.378906 37.03125 63.785156 36.871094 64.085938 36.558594 C 64.679688 35.941406 64.667969 34.953125 64.054688 34.351562 C 63.339844 33.65625 62.484375 33.191406 61.578125 32.902344 C 62.496094 29.734375 62.132812 28.328125 61.277344 25.695312 C 61.128906 25.238281 60.964844 24.726562 60.792969 24.144531 L 60.699219 23.832031 C 59.566406 20.066406 58.816406 17.582031 60.96875 14.074219 C 61.417969 13.34375 61.1875 12.382812 60.457031 11.929688 C 59.742188 11.480469 58.773438 11.703125 58.320312 12.441406 C 55.4375 17.140625 56.496094 20.660156 57.722656 24.734375 L 57.816406 25.046875 C 58 25.652344 58.167969 26.183594 58.324219 26.660156 C 59.089844 29.03125 59.324219 29.828125 58.386719 32.695312 C 57.238281 32.910156 56.140625 33.429688 55.246094 34.265625 C 54.621094 34.851562 54.585938 35.839844 55.167969 36.46875 C 55.757812 37.097656 56.742188 37.128906 57.367188 36.542969 Z M 77.144531 27.238281 C 78.050781 27.238281 78.964844 27.050781 79.816406 26.644531 C 80.589844 26.277344 80.925781 25.347656 80.558594 24.566406 C 80.195312 23.789062 79.253906 23.464844 78.492188 23.824219 C 76.929688 24.558594 75.007812 23.917969 74.191406 22.398438 C 73.785156 21.636719 72.835938 21.359375 72.085938 21.757812 C 71.332031 22.164062 71.046875 23.113281 71.453125 23.871094 C 72.011719 24.917969 72.84375 25.742188 73.8125 26.316406 C 72.144531 30.382812 73.09375 34.703125 73.867188 36.996094 C 74.085938 37.648438 74.691406 38.054688 75.339844 38.054688 C 75.503906 38.054688 75.667969 38.03125 75.835938 37.976562 C 76.652344 37.699219 77.085938 36.816406 76.808594 36 C 76.289062 34.449219 75.273438 30.527344 76.804688 27.191406 C 76.921875 27.199219 77.03125 27.238281 77.144531 27.238281 Z M 92.050781 56.632812 C 91.992188 55.773438 91.253906 55.097656 90.402344 55.175781 C 87.25 55.402344 84.566406 53.003906 84.351562 49.867188 C 84.289062 49.011719 83.527344 48.371094 82.695312 48.417969 C 81.839844 48.476562 81.195312 49.222656 81.25 50.078125 C 81.378906 51.917969 82.078125 53.578125 83.140625 54.925781 C 80.640625 57.875 77.371094 58.714844 75.546875 58.929688 C 73.933594 59.125 72.523438 58.957031 70.890625 58.765625 C 69.394531 58.59375 67.707031 58.398438 65.613281 58.460938 L 65.597656 58.460938 C 65.535156 57.570312 65.324219 56.269531 64.652344 55.1875 C 64.195312 54.460938 63.238281 54.242188 62.507812 54.695312 C 61.785156 55.152344 61.5625 56.113281 62.019531 56.84375 C 62.433594 57.515625 62.511719 58.582031 62.511719 59.105469 C 60.945312 59.667969 59.589844 60.496094 58.367188 61.300781 C 56.179688 62.726562 54.453125 63.855469 51.859375 63.269531 C 49.511719 62.730469 47.160156 62.621094 45.164062 62.902344 C 44.851562 62.117188 44.363281 61.183594 43.605469 60.464844 C 42.980469 59.871094 41.996094 59.894531 41.40625 60.527344 C 40.820312 61.148438 40.84375 62.136719 41.46875 62.730469 C 41.734375 62.984375 41.949219 63.351562 42.117188 63.71875 C 38.691406 65.132812 36.972656 67.5 36.890625 67.613281 C 36.394531 68.3125 36.558594 69.277344 37.25 69.777344 C 37.523438 69.976562 37.839844 70.070312 38.15625 70.070312 C 38.636719 70.070312 39.113281 69.851562 39.417969 69.433594 C 39.433594 69.40625 41.140625 67.117188 44.503906 66.191406 C 46.246094 65.710938 48.742188 65.75 51.171875 66.304688 C 51.855469 66.460938 52.484375 66.515625 53.097656 66.523438 C 53.386719 67.203125 53.496094 68.011719 53.511719 68.308594 C 53.5625 69.140625 54.246094 69.78125 55.0625 69.78125 L 55.148438 69.777344 C 56.003906 69.730469 56.65625 69.003906 56.617188 68.148438 C 56.609375 67.992188 56.546875 67.070312 56.214844 66.007812 C 57.644531 65.488281 58.890625 64.675781 60.0625 63.910156 C 61.839844 62.75 63.523438 61.648438 65.71875 61.578125 C 67.558594 61.511719 69.074219 61.6875 70.539062 61.859375 C 72.011719 62.03125 73.460938 62.144531 75.058594 62.050781 C 75.339844 62.839844 75.320312 63.894531 75.273438 64.246094 C 75.171875 65.097656 75.773438 65.875 76.625 65.988281 C 76.6875 65.996094 76.753906 66 76.820312 66 C 77.585938 66 78.253906 65.429688 78.359375 64.644531 C 78.382812 64.449219 78.539062 63.046875 78.175781 61.585938 C 80.40625 60.984375 83.171875 59.679688 85.460938 57 C 86.800781 57.824219 88.363281 58.304688 90.027344 58.304688 C 90.21875 58.304688 90.414062 58.300781 90.605469 58.289062 C 91.460938 58.230469 92.109375 57.492188 92.050781 56.632812 Z M 92.050781 56.632812 "/>
</g>
<mask id="mask4">
  <g filter="url(#alpha)">
<rect x="0" y="0" width="1728" height="1295.99994" style="fill:rgb(0%,0%,0%);fill-opacity:0.7765;stroke:none;"/>
  </g>
</mask>
<clipPath id="clip20">
  <path d="M 33 62 L 437 62 L 437 312.601562 L 33 312.601562 Z M 33 62 "/>
</clipPath>
<clipPath id="clip21">
  <path d="M 0.28125 16.929688 L 470 16.929688 L 470 63 L 0.28125 63 Z M 0.28125 16.929688 "/>
</clipPath>
<clipPath id="clip19">
  <rect x="0" y="0" width="480" height="313"/>
</clipPath>
<g id="surface17" clip-path="url(#clip19)">
<g clip-path="url(#clip20)" clip-rule="nonzero">
<path style=" stroke:none;fill-rule:evenodd;fill:rgb(0%,0%,0%);fill-opacity:1;" d="M 407.5625 62.734375 L 436.296875 312.59375 L 428.890625 312.59375 L 369.714844 62.734375 Z M 62.363281 62.734375 L 100.214844 62.734375 L 41.039062 312.59375 L 33.632812 312.59375 Z M 62.363281 62.734375 "/>
</g>
<g clip-path="url(#clip21)" clip-rule="nonzero">
<path style=" stroke:none;fill-rule:evenodd;fill:rgb(100%,8.628845%,8.628845%);fill-opacity:1;" d="M 24.109375 62.734375 C 11.085938 62.734375 0.503906 52.324219 0.503906 39.3125 C 0.503906 26.378906 10.921875 15.886719 24.109375 15.886719 L 445.738281 15.886719 C 458.761719 15.886719 469.34375 26.296875 469.34375 39.3125 C 469.34375 52.242188 458.925781 62.734375 445.738281 62.734375 Z M 24.109375 62.734375 "/>
</g>
</g>
</defs>
<g id="surface1">
<path style="fill-rule:nonzero;fill:rgb(100%,100%,100%);fill-opacity:1;stroke-width:5;stroke-linecap:butt;stroke-linejoin:round;stroke:rgb(24.708557%,30.198669%,56.469727%);stroke-opacity:1;stroke-miterlimit:4;" d="M 345.049594 843.189788 L 750.579955 843.189788 L 750.579955 867.867978 L 345.049594 867.867978 Z M 345.049594 843.189788 " transform="matrix(0.679617,0,0,0.678579,1000.931904,380.848922)"/>
<path style=" stroke:none;fill-rule:nonzero;fill:rgb(100%,100%,100%);fill-opacity:1;" d="M 1547.203125 917.0625 C 1547.203125 763.214844 1623.71875 678.554688 1623.71875 678.554688 L 1396.265625 678.554688 C 1396.265625 678.554688 1319.746094 763.214844 1319.746094 917.0625 Z M 1547.203125 917.0625 "/>
<g clip-path="url(#clip1)" clip-rule="nonzero">
<path style="fill:none;stroke-width:6;stroke-linecap:butt;stroke-linejoin:miter;stroke:rgb(84.709167%,72.938538%,63.919067%);stroke-opacity:1;stroke-miterlimit:10;" d="M 803.792344 790.201044 C 803.792344 563.480604 916.378677 438.719601 916.378677 438.719601 L 581.700456 438.719601 C 581.700456 438.719601 469.108375 563.480604 469.108375 790.201044 Z M 803.792344 790.201044 " transform="matrix(0.679617,0,0,0.678579,1000.931904,380.848922)"/>
</g>
<path style="fill-rule:nonzero;fill:rgb(100%,100%,100%);fill-opacity:1;stroke-width:6;stroke-linecap:butt;stroke-linejoin:miter;stroke:rgb(84.709167%,72.938538%,63.919067%);stroke-opacity:1;stroke-miterlimit:10;" d="M 348.337289 790.201044 L 803.792344 790.201044 C 803.792344 791.933756 803.706128 793.666468 803.533697 795.393423 C 803.367013 797.120378 803.108365 798.83582 802.76925 800.53975 C 802.430134 802.243679 802.010551 803.924582 801.510499 805.582459 C 801.0047 807.246093 800.418432 808.880943 799.757445 810.481255 C 799.090709 812.087324 798.349253 813.653096 797.533077 815.18433 C 796.711153 816.715564 795.820257 818.200745 794.860388 819.645631 C 793.894771 821.090517 792.860181 822.483594 791.762367 823.824863 C 790.658804 825.166131 789.492017 826.449835 788.267753 827.675973 C 787.037741 828.902111 785.756 830.070684 784.411033 831.170179 C 783.071815 832.269674 781.680866 833.305847 780.232441 834.267185 C 778.789763 835.23428 777.306852 836.120784 775.772211 836.943966 C 774.243317 837.761392 772.67419 838.503982 771.070576 839.165982 C 769.466962 839.827981 767.83461 840.415146 766.173519 840.915963 C 764.512428 841.422537 762.834094 841.842762 761.127021 842.182397 C 759.425696 842.522032 757.712875 842.775318 755.982812 842.942257 C 754.258496 843.114953 752.528432 843.201301 750.792621 843.201301 L 295.337566 843.201301 C 295.337566 841.462832 295.423782 839.730121 295.596214 838.003165 C 295.762898 836.27621 296.021545 834.560768 296.36066 832.862595 C 296.699776 831.158666 297.119359 829.477763 297.619411 827.814129 C 298.12521 826.156252 298.711478 824.521401 299.372466 822.915333 C 300.039201 821.315021 300.780657 819.749248 301.596833 818.218015 C 302.418757 816.686781 303.309654 815.195843 304.269523 813.756714 C 305.23514 812.311828 306.269729 810.918751 307.373291 809.577482 C 308.471106 808.236214 309.637893 806.95251 310.862157 805.720615 C 312.092169 804.494477 313.373911 803.331661 314.718877 802.232166 C 316.058096 801.126914 317.449044 800.096498 318.897469 799.129403 C 320.340147 798.168064 321.823059 797.275804 323.3577 796.458379 C 324.886593 795.640953 326.455721 794.898363 328.059334 794.236363 C 329.662948 793.568607 331.295301 792.987199 332.956392 792.480625 C 334.617483 791.979808 336.295817 791.559582 338.002889 791.219948 C 339.704214 790.880313 341.417035 790.627027 343.147099 790.454331 C 344.871414 790.287392 346.601478 790.201044 348.337289 790.201044 Z M 348.337289 790.201044 " transform="matrix(0.679617,0,0,0.678579,1000.931904,380.848922)"/>
<path style="fill-rule:nonzero;fill:rgb(100%,100%,100%);fill-opacity:1;stroke-width:5;stroke-linecap:butt;stroke-linejoin:round;stroke:rgb(24.708557%,30.198669%,56.469727%);stroke-opacity:1;stroke-miterlimit:4;" d="M 746.389868 1338.002759 C 745.72888 1338.002759 745.079387 1337.887629 744.458634 1337.663125 C 743.832132 1337.438621 743.263108 1337.116256 742.751561 1336.69603 C 742.240014 1336.270048 741.814683 1335.774987 741.475567 1335.205092 C 741.136452 1334.635197 740.906543 1334.019249 740.780093 1333.368763 L 651.667447 867.879491 L 702.747432 867.879491 L 752.068615 1331.682103 C 752.114596 1332.079303 752.114596 1332.476503 752.074362 1332.873702 C 752.034128 1333.276658 751.947913 1333.662345 751.82721 1334.048032 C 751.700761 1334.427962 751.539824 1334.790623 751.338654 1335.136014 C 751.143232 1335.487161 750.907575 1335.809526 750.637432 1336.108865 C 750.373037 1336.402447 750.074156 1336.673004 749.752284 1336.909021 C 749.424664 1337.145038 749.0798 1337.34076 748.717694 1337.507699 C 748.34984 1337.668881 747.97049 1337.789768 747.579646 1337.876116 C 747.188801 1337.956707 746.792208 1338.002759 746.389868 1338.002759 Z M 746.389868 1338.002759 " transform="matrix(0.679617,0,0,0.678579,1000.931904,380.848922)"/>
<path style="fill-rule:nonzero;fill:rgb(100%,100%,100%);fill-opacity:1;stroke-width:5;stroke-linecap:butt;stroke-linejoin:round;stroke:rgb(24.708557%,30.198669%,56.469727%);stroke-opacity:1;stroke-miterlimit:4;" d="M 350.078849 1338.002759 C 350.745584 1338.002759 351.389329 1337.887629 352.010082 1337.663125 C 352.636584 1337.438621 353.205608 1337.116256 353.717155 1336.69603 C 354.228702 1336.270048 354.654033 1335.774987 354.993149 1335.205092 C 355.332264 1334.635197 355.562173 1334.019249 355.688623 1333.368763 L 444.801269 867.879491 L 393.732779 867.879491 L 344.400101 1331.682103 C 344.359867 1332.079303 344.35412 1332.476503 344.400101 1332.873702 C 344.440336 1333.276658 344.520804 1333.662345 344.641506 1334.048032 C 344.767956 1334.427962 344.928892 1334.790623 345.130062 1335.136014 C 345.331232 1335.487161 345.561141 1335.809526 345.831284 1336.108865 C 346.095679 1336.402447 346.39456 1336.673004 346.716432 1336.909021 C 347.044053 1337.145038 347.388916 1337.34076 347.751022 1337.507699 C 348.118876 1337.668881 348.498226 1337.789768 348.889071 1337.876116 C 349.285663 1337.956707 349.676508 1338.002759 350.078849 1338.002759 Z M 350.078849 1338.002759 " transform="matrix(0.679617,0,0,0.678579,1000.931904,380.848922)"/>
<path style=" stroke:none;fill-rule:nonzero;fill:rgb(100%,69.018555%,0%);fill-opacity:1;" d="M 1171.375 774.84375 C 1264.480469 797.238281 1311.128906 772.007812 1319.585938 756.617188 C 1319.585938 756.617188 1314.929688 727.726562 1318.367188 682.933594 C 1321.804688 638.140625 1314.574219 537.816406 1314.574219 537.816406 C 1294.058594 545.695312 1264.03125 558.304688 1255.09375 584.566406 C 1246.160156 610.824219 1244.75 682.777344 1244.222656 713.535156 C 1244.222656 713.535156 1196.449219 729.894531 1175.050781 741.066406 C 1174.457031 741.375 1173.890625 741.726562 1173.351562 742.125 C 1172.816406 742.519531 1172.308594 742.957031 1171.839844 743.429688 C 1171.371094 743.90625 1170.9375 744.414062 1170.546875 744.957031 C 1170.15625 745.496094 1169.808594 746.066406 1169.503906 746.660156 C 1169.203125 747.257812 1168.949219 747.871094 1168.742188 748.507812 C 1168.535156 749.144531 1168.378906 749.789062 1168.269531 750.449219 C 1168.164062 751.109375 1168.109375 751.773438 1168.109375 752.441406 C 1168.105469 753.109375 1168.152344 753.773438 1168.253906 754.433594 Z M 1171.375 774.84375 "/>
<path style="fill:none;stroke-width:5;stroke-linecap:butt;stroke-linejoin:round;stroke:rgb(100%,100%,100%);stroke-opacity:1;stroke-miterlimit:4;" d="M 386.002096 490.269215 C 386.002096 490.269215 372.351262 484.852332 345.222025 490.83911 " transform="matrix(0.679617,0,0,0.678579,1000.931904,380.848922)"/>
<path style=" stroke:none;fill-rule:nonzero;fill:rgb(76.469421%,43.528748%,4.309082%);fill-opacity:1;" d="M 1176.597656 758.449219 C 1176.851562 760.011719 1176.886719 761.574219 1176.707031 763.144531 C 1176.523438 764.714844 1176.128906 766.230469 1175.519531 767.691406 C 1174.914062 769.148438 1174.121094 770.5 1173.136719 771.738281 C 1172.152344 772.976562 1171.019531 774.058594 1169.734375 774.980469 L 1168.667969 775.734375 C 1161.375 780.761719 1147.390625 784.828125 1144.074219 784.601562 C 1140.757812 784.378906 1120.367188 780.613281 1120.367188 780.613281 C 1120.367188 780.613281 1119.640625 777.835938 1122.625 774.179688 C 1125.609375 770.523438 1147.464844 773.425781 1139.472656 765.398438 C 1135.917969 761.832031 1118.214844 769.886719 1110.511719 778.816406 C 1102.8125 787.746094 1099.15625 780.667969 1099.15625 780.667969 C 1099.15625 780.667969 1106.53125 764.125 1109.160156 761.132812 C 1111.792969 758.140625 1129.378906 745.429688 1141.265625 743.488281 C 1146.933594 742.566406 1154.898438 743.085938 1162.808594 744.457031 C 1163.671875 744.609375 1164.519531 744.828125 1165.347656 745.109375 C 1166.175781 745.394531 1166.976562 745.738281 1167.75 746.144531 C 1168.527344 746.550781 1169.265625 747.015625 1169.96875 747.539062 C 1170.671875 748.058594 1171.328125 748.632812 1171.945312 749.253906 C 1172.558594 749.878906 1173.121094 750.542969 1173.632812 751.253906 C 1174.140625 751.964844 1174.59375 752.710938 1174.988281 753.492188 C 1175.386719 754.269531 1175.71875 755.078125 1175.988281 755.910156 C 1176.257812 756.738281 1176.460938 757.585938 1176.597656 758.449219 Z M 1176.597656 758.449219 "/>
<path style=" stroke:none;fill-rule:nonzero;fill:rgb(76.469421%,43.528748%,4.309082%);fill-opacity:1;" d="M 1227.53125 1259.484375 C 1235.046875 1257.789062 1245.4375 1254.152344 1251.226562 1246.492188 L 1254.515625 1228.773438 C 1254.515625 1228.773438 1232.90625 1231.230469 1213.164062 1229.34375 L 1216.988281 1252.53125 C 1217.09375 1253.109375 1217.257812 1253.675781 1217.476562 1254.222656 C 1217.695312 1254.769531 1217.96875 1255.289062 1218.292969 1255.78125 C 1218.621094 1256.269531 1218.992188 1256.726562 1219.40625 1257.140625 C 1219.824219 1257.558594 1220.28125 1257.929688 1220.773438 1258.253906 C 1221.265625 1258.582031 1221.785156 1258.851562 1222.332031 1259.074219 C 1222.878906 1259.292969 1223.445312 1259.453125 1224.023438 1259.5625 C 1224.605469 1259.667969 1225.191406 1259.714844 1225.78125 1259.699219 C 1226.371094 1259.6875 1226.953125 1259.617188 1227.53125 1259.484375 Z M 1227.53125 1259.484375 "/>
<path style=" stroke:none;fill-rule:nonzero;fill:rgb(100%,69.018555%,0%);fill-opacity:1;" d="M 1139.574219 1281.179688 C 1139.6875 1282.496094 1142.066406 1288.78125 1142.066406 1288.78125 L 1263.632812 1284.667969 L 1263.632812 1277.882812 C 1263.632812 1266.523438 1259.765625 1256.71875 1257.71875 1252.457031 C 1254.566406 1245.878906 1250.1875 1247.523438 1250.1875 1247.523438 C 1250.1875 1247.523438 1238.300781 1259.125 1224.96875 1259.125 C 1222.398438 1259.125 1220.558594 1257.769531 1219.238281 1255.789062 C 1218.449219 1254.554688 1217.839844 1253.238281 1217.417969 1251.839844 C 1216.863281 1250.019531 1216.472656 1248.164062 1216.25 1246.273438 C 1216.199219 1245.875 1216.101562 1245.488281 1215.957031 1245.113281 C 1215.8125 1244.738281 1215.628906 1244.386719 1215.398438 1244.054688 C 1215.171875 1243.722656 1214.90625 1243.425781 1214.605469 1243.160156 C 1214.304688 1242.890625 1213.976562 1242.664062 1213.621094 1242.476562 C 1213.261719 1242.289062 1212.890625 1242.148438 1212.5 1242.050781 C 1212.109375 1241.953125 1211.714844 1241.902344 1211.3125 1241.902344 C 1210.910156 1241.898438 1210.511719 1241.945312 1210.121094 1242.039062 C 1209.730469 1242.132812 1209.355469 1242.269531 1208.996094 1242.453125 C 1203.761719 1245.167969 1197.410156 1251.152344 1180.390625 1260.328125 C 1179.542969 1260.789062 1178.660156 1261.257812 1177.746094 1261.738281 C 1157.054688 1272.609375 1139.804688 1268.566406 1139.574219 1281.179688 Z M 1139.574219 1281.179688 "/>
<path style=" stroke:none;fill-rule:nonzero;fill:rgb(24.708557%,30.198669%,47.44873%);fill-opacity:1;" d="M 1153.253906 1294.785156 C 1149.734375 1294.785156 1145.4375 1293.199219 1143.136719 1290.621094 C 1142.417969 1289.78125 1141.804688 1288.875 1141.296875 1287.894531 C 1140.789062 1286.917969 1140.398438 1285.894531 1140.125 1284.828125 C 1139.851562 1283.761719 1139.699219 1282.675781 1139.675781 1281.574219 C 1139.648438 1280.472656 1139.75 1279.382812 1139.976562 1278.304688 L 1140.070312 1278.304688 C 1140.191406 1278.941406 1140.367188 1279.5625 1140.59375 1280.171875 C 1140.820312 1280.777344 1141.097656 1281.363281 1141.425781 1281.921875 C 1141.75 1282.480469 1142.125 1283.011719 1142.539062 1283.507812 C 1142.957031 1284.003906 1143.414062 1284.464844 1143.910156 1284.882812 C 1144.40625 1285.300781 1144.933594 1285.675781 1145.492188 1286.003906 C 1146.050781 1286.335938 1146.632812 1286.613281 1147.242188 1286.84375 C 1147.847656 1287.074219 1148.472656 1287.253906 1149.109375 1287.378906 C 1149.746094 1287.5 1150.390625 1287.570312 1151.039062 1287.585938 L 1256.425781 1284.503906 C 1259.695312 1284.503906 1262.496094 1282.246094 1263.636719 1279.078125 L 1263.636719 1286.148438 C 1263.636719 1290.929688 1260.164062 1294.804688 1255.875 1294.804688 Z M 1153.253906 1294.785156 "/>
<path style=" stroke:none;fill-rule:nonzero;fill:rgb(24.708557%,30.198669%,47.44873%);fill-opacity:1;" d="M 1175.816406 1262.730469 C 1177.363281 1263.007812 1178.882812 1263.394531 1180.371094 1263.886719 C 1181.863281 1264.378906 1183.3125 1264.972656 1184.722656 1265.667969 C 1186.128906 1266.363281 1187.480469 1267.152344 1188.777344 1268.039062 C 1190.074219 1268.921875 1191.304688 1269.894531 1192.464844 1270.949219 C 1193.625 1272.007812 1194.703125 1273.140625 1195.703125 1274.347656 C 1196.707031 1275.558594 1197.617188 1276.828125 1198.4375 1278.167969 C 1199.261719 1279.503906 1199.984375 1280.890625 1200.609375 1282.328125 C 1201.238281 1283.765625 1201.761719 1285.238281 1202.179688 1286.75 L 1207.03125 1286.582031 C 1206.648438 1285.023438 1206.171875 1283.496094 1205.59375 1281.996094 C 1205.019531 1280.496094 1204.351562 1279.039062 1203.59375 1277.625 C 1202.832031 1276.210938 1201.988281 1274.851562 1201.058594 1273.542969 C 1200.125 1272.234375 1199.117188 1270.988281 1198.027344 1269.804688 C 1196.941406 1268.625 1195.78125 1267.515625 1194.554688 1266.480469 C 1193.328125 1265.445312 1192.039062 1264.488281 1190.691406 1263.613281 C 1189.34375 1262.738281 1187.945312 1261.953125 1186.5 1261.253906 C 1185.050781 1260.554688 1183.566406 1259.949219 1182.042969 1259.4375 L 1180.398438 1260.328125 C 1179.550781 1260.789062 1178.664062 1261.257812 1177.753906 1261.738281 C 1177.113281 1262.085938 1176.464844 1262.417969 1175.816406 1262.730469 Z M 1175.816406 1262.730469 "/>
<path style=" stroke:none;fill-rule:nonzero;fill:rgb(24.708557%,30.198669%,47.44873%);fill-opacity:1;" d="M 1163.796875 1267.386719 L 1163.796875 1268.015625 C 1165.332031 1268.019531 1166.863281 1268.128906 1168.382812 1268.351562 C 1169.902344 1268.578125 1171.402344 1268.90625 1172.875 1269.347656 C 1174.347656 1269.789062 1175.78125 1270.332031 1177.171875 1270.976562 C 1178.566406 1271.625 1179.90625 1272.371094 1181.191406 1273.210938 C 1182.480469 1274.050781 1183.699219 1274.980469 1184.847656 1276 C 1186 1277.015625 1187.070312 1278.113281 1188.0625 1279.285156 C 1189.054688 1280.457031 1189.957031 1281.695312 1190.769531 1283 C 1191.582031 1284.300781 1192.292969 1285.65625 1192.910156 1287.0625 L 1197.953125 1286.894531 C 1197.429688 1285.507812 1196.820312 1284.160156 1196.132812 1282.851562 C 1195.445312 1281.539062 1194.679688 1280.277344 1193.835938 1279.058594 C 1192.992188 1277.839844 1192.082031 1276.675781 1191.097656 1275.570312 C 1190.113281 1274.460938 1189.066406 1273.417969 1187.953125 1272.4375 C 1186.84375 1271.457031 1185.675781 1270.546875 1184.457031 1269.707031 C 1183.234375 1268.871094 1181.96875 1268.105469 1180.652344 1267.421875 C 1179.339844 1266.738281 1177.988281 1266.132812 1176.601562 1265.613281 C 1175.214844 1265.089844 1173.800781 1264.652344 1172.359375 1264.304688 C 1169.558594 1265.480469 1166.703125 1266.507812 1163.796875 1267.386719 Z M 1163.796875 1267.386719 "/>
<path style=" stroke:none;fill-rule:nonzero;fill:rgb(76.469421%,43.528748%,4.309082%);fill-opacity:1;" d="M 1375.222656 1259.484375 C 1382.742188 1257.789062 1392.445312 1254.152344 1398.234375 1246.492188 L 1400.171875 1227.300781 C 1400.171875 1227.300781 1379.898438 1229.070312 1360.15625 1227.179688 L 1364.691406 1252.53125 C 1364.796875 1253.109375 1364.957031 1253.671875 1365.175781 1254.21875 C 1365.394531 1254.765625 1365.667969 1255.285156 1365.992188 1255.777344 C 1366.316406 1256.269531 1366.6875 1256.726562 1367.105469 1257.140625 C 1367.523438 1257.558594 1367.976562 1257.929688 1368.46875 1258.253906 C 1368.960938 1258.578125 1369.480469 1258.851562 1370.027344 1259.070312 C 1370.578125 1259.292969 1371.140625 1259.453125 1371.722656 1259.5625 C 1372.300781 1259.667969 1372.886719 1259.714844 1373.476562 1259.699219 C 1374.066406 1259.6875 1374.648438 1259.617188 1375.222656 1259.484375 Z M 1375.222656 1259.484375 "/>
<path style=" stroke:none;fill-rule:nonzero;fill:rgb(100%,75.289917%,19.999695%);fill-opacity:1;" d="M 1294.144531 1281.179688 C 1294.261719 1282.496094 1296.640625 1288.78125 1296.640625 1288.78125 L 1411.332031 1284.667969 L 1411.332031 1277.882812 C 1411.332031 1266.523438 1407.464844 1256.71875 1405.425781 1252.457031 C 1402.265625 1245.878906 1397.894531 1246.152344 1397.894531 1246.152344 C 1397.894531 1246.152344 1386.003906 1259.125 1372.667969 1259.125 C 1370.101562 1259.125 1368.257812 1257.769531 1366.945312 1255.789062 C 1366.152344 1254.558594 1365.546875 1253.242188 1365.125 1251.839844 C 1364.566406 1250.019531 1364.175781 1248.164062 1363.957031 1246.273438 C 1363.90625 1245.875 1363.808594 1245.488281 1363.664062 1245.113281 C 1363.519531 1244.738281 1363.332031 1244.386719 1363.105469 1244.054688 C 1362.875 1243.722656 1362.609375 1243.425781 1362.308594 1243.160156 C 1362.007812 1242.890625 1361.679688 1242.664062 1361.324219 1242.476562 C 1360.96875 1242.289062 1360.59375 1242.148438 1360.203125 1242.050781 C 1359.8125 1241.953125 1359.414062 1241.902344 1359.011719 1241.902344 C 1358.609375 1241.898438 1358.214844 1241.945312 1357.824219 1242.039062 C 1357.429688 1242.132812 1357.054688 1242.269531 1356.699219 1242.453125 C 1351.464844 1245.167969 1351.980469 1251.152344 1334.949219 1260.328125 C 1334.101562 1260.789062 1333.21875 1261.257812 1332.304688 1261.738281 C 1311.617188 1272.609375 1294.371094 1268.566406 1294.144531 1281.179688 Z M 1294.144531 1281.179688 "/>
<path style=" stroke:none;fill-rule:nonzero;fill:rgb(24.708557%,30.198669%,47.44873%);fill-opacity:1;" d="M 1307.820312 1294.785156 C 1304.300781 1294.785156 1300.003906 1293.199219 1297.699219 1290.621094 C 1296.984375 1289.78125 1296.371094 1288.875 1295.863281 1287.894531 C 1295.355469 1286.917969 1294.964844 1285.894531 1294.691406 1284.828125 C 1294.414062 1283.761719 1294.265625 1282.675781 1294.242188 1281.574219 C 1294.214844 1280.472656 1294.316406 1279.382812 1294.539062 1278.304688 L 1294.636719 1278.304688 C 1294.757812 1278.941406 1294.929688 1279.5625 1295.15625 1280.171875 C 1295.386719 1280.777344 1295.664062 1281.363281 1295.988281 1281.921875 C 1296.316406 1282.480469 1296.6875 1283.011719 1297.105469 1283.507812 C 1297.523438 1284.003906 1297.980469 1284.464844 1298.476562 1284.882812 C 1298.96875 1285.300781 1299.496094 1285.675781 1300.058594 1286.003906 C 1300.617188 1286.335938 1301.199219 1286.613281 1301.808594 1286.84375 C 1302.414062 1287.074219 1303.035156 1287.253906 1303.675781 1287.378906 C 1304.3125 1287.5 1304.953125 1287.570312 1305.605469 1287.585938 L 1404.148438 1284.503906 C 1407.417969 1284.503906 1410.210938 1282.246094 1411.351562 1279.078125 L 1411.351562 1286.148438 C 1411.351562 1290.929688 1407.878906 1294.804688 1403.589844 1294.804688 Z M 1307.820312 1294.785156 "/>
<path style=" stroke:none;fill-rule:nonzero;fill:rgb(24.708557%,30.198669%,47.44873%);fill-opacity:1;" d="M 1330.382812 1262.730469 C 1331.929688 1263.007812 1333.445312 1263.394531 1334.9375 1263.886719 C 1336.429688 1264.378906 1337.878906 1264.972656 1339.285156 1265.667969 C 1340.695312 1266.363281 1342.046875 1267.152344 1343.34375 1268.039062 C 1344.640625 1268.921875 1345.867188 1269.894531 1347.027344 1270.949219 C 1348.1875 1272.007812 1349.269531 1273.140625 1350.269531 1274.347656 C 1351.269531 1275.558594 1352.183594 1276.828125 1353.003906 1278.167969 C 1353.824219 1279.503906 1354.550781 1280.890625 1355.175781 1282.328125 C 1355.804688 1283.765625 1356.328125 1285.238281 1356.746094 1286.75 L 1361.597656 1286.582031 C 1361.214844 1285.023438 1360.734375 1283.496094 1360.160156 1281.996094 C 1359.585938 1280.496094 1358.917969 1279.039062 1358.15625 1277.625 C 1357.398438 1276.210938 1356.554688 1274.851562 1355.621094 1273.542969 C 1354.691406 1272.234375 1353.683594 1270.988281 1352.59375 1269.804688 C 1351.507812 1268.625 1350.347656 1267.515625 1349.121094 1266.480469 C 1347.894531 1265.445312 1346.605469 1264.488281 1345.257812 1263.613281 C 1343.910156 1262.738281 1342.511719 1261.953125 1341.066406 1261.253906 C 1339.617188 1260.554688 1338.132812 1259.949219 1336.609375 1259.4375 L 1334.964844 1260.328125 C 1334.113281 1260.789062 1333.230469 1261.257812 1332.320312 1261.738281 C 1331.675781 1262.085938 1331.03125 1262.417969 1330.382812 1262.730469 Z M 1330.382812 1262.730469 "/>
<path style=" stroke:none;fill-rule:nonzero;fill:rgb(24.708557%,30.198669%,47.44873%);fill-opacity:1;" d="M 1318.359375 1267.386719 L 1318.359375 1268.015625 C 1319.898438 1268.019531 1321.425781 1268.128906 1322.949219 1268.351562 C 1324.46875 1268.578125 1325.964844 1268.90625 1327.4375 1269.347656 C 1328.910156 1269.789062 1330.34375 1270.332031 1331.738281 1270.976562 C 1333.132812 1271.625 1334.472656 1272.371094 1335.757812 1273.210938 C 1337.042969 1274.050781 1338.261719 1274.980469 1339.414062 1276 C 1340.566406 1277.015625 1341.636719 1278.113281 1342.628906 1279.285156 C 1343.621094 1280.457031 1344.523438 1281.695312 1345.335938 1283 C 1346.144531 1284.300781 1346.859375 1285.65625 1347.476562 1287.0625 L 1352.519531 1286.894531 C 1351.992188 1285.507812 1351.386719 1284.160156 1350.699219 1282.851562 C 1350.007812 1281.539062 1349.242188 1280.277344 1348.402344 1279.058594 C 1347.558594 1277.839844 1346.644531 1276.675781 1345.660156 1275.570312 C 1344.679688 1274.460938 1343.628906 1273.417969 1342.519531 1272.4375 C 1341.410156 1271.457031 1340.242188 1270.546875 1339.023438 1269.707031 C 1337.800781 1268.871094 1336.53125 1268.109375 1335.21875 1267.421875 C 1333.902344 1266.738281 1332.554688 1266.132812 1331.164062 1265.613281 C 1329.777344 1265.089844 1328.363281 1264.652344 1326.925781 1264.304688 C 1324.125 1265.480469 1321.269531 1266.507812 1318.359375 1267.386719 Z M 1318.359375 1267.386719 "/>
<path style=" stroke:none;fill-rule:nonzero;fill:rgb(84.709167%,72.938538%,63.919067%);fill-opacity:1;" d="M 1406.433594 951.535156 C 1406.433594 951.535156 1455.5 1021.324219 1412.433594 1225 C 1412.433594 1225 1389.863281 1232.558594 1353.890625 1227.035156 C 1353.890625 1227.035156 1305.191406 1028.992188 1298.5625 943.179688 C 1286.617188 942.828125 1274.238281 942.609375 1261.484375 942.609375 C 1261.484375 942.609375 1312.949219 1047.648438 1262.992188 1228.710938 C 1262.992188 1228.710938 1226.191406 1231.339844 1206.84375 1228.582031 C 1206.84375 1228.582031 1147.449219 932.539062 1151.289062 905.011719 C 1155.882812 871.875 1260.421875 829.566406 1326.183594 823.601562 L 1473.359375 822.691406 C 1473.359375 822.691406 1511.085938 860.691406 1495.339844 914.605469 C 1483.527344 955.054688 1406.433594 951.535156 1406.433594 951.535156 Z M 1406.433594 951.535156 "/>
<path style=" stroke:none;fill-rule:nonzero;fill:rgb(94.119263%,88.238525%,83.139038%);fill-opacity:1;" d="M 1484.085938 836.65625 C 1484.566406 838.109375 1485.289062 839.433594 1486.246094 840.625 C 1486.246094 840.625 1357.277344 884.460938 1303 829.316406 C 1361.972656 849.921875 1458.742188 839.824219 1484.085938 836.65625 Z M 1484.085938 836.65625 "/>
<path style=" stroke:none;fill-rule:nonzero;fill:rgb(100%,69.018555%,0%);fill-opacity:1;" d="M 1429.648438 502.125 C 1436.347656 507.621094 1518.9375 555.414062 1530.769531 561.980469 C 1542.601562 568.550781 1475.570312 712.714844 1477.65625 764.152344 C 1479.207031 802.328125 1489.699219 835.824219 1489.699219 835.824219 C 1489.699219 835.824219 1371.382812 853.214844 1303 829.316406 C 1303 829.316406 1317.207031 808.277344 1309.316406 764.714844 C 1302.917969 729.367188 1289.90625 631.246094 1293.535156 593.496094 C 1294.851562 579.835938 1297.21875 545.960938 1314.601562 537.816406 C 1340.902344 525.488281 1359.050781 514.746094 1359.050781 514.746094 Z M 1429.648438 502.125 "/>
<path style="fill:none;stroke-width:5;stroke-linecap:butt;stroke-linejoin:round;stroke:rgb(100%,100%,100%);stroke-opacity:1;stroke-miterlimit:4;" d="M 453.750468 568.690252 C 444.341451 516.599526 425.747578 413.477272 439.639816 343.691011 " transform="matrix(0.679617,0,0,0.678579,1000.931904,380.848922)"/>
<path style=" stroke:none;fill-rule:nonzero;fill:rgb(100%,69.018555%,0%);fill-opacity:1;" d="M 1530.769531 562.375 C 1566.011719 593.367188 1569.371094 721.421875 1547.078125 744.757812 C 1503.421875 790.453125 1371.636719 789.9375 1371.636719 789.9375 C 1371.636719 789.9375 1357.847656 787.949219 1365.738281 755.914062 C 1365.738281 755.914062 1463.4375 706.648438 1472.90625 706.941406 C 1472.90625 706.941406 1471.328125 615.550781 1491.316406 588.242188 C 1511.304688 560.9375 1526.621094 558.730469 1530.769531 562.375 Z M 1530.769531 562.375 "/>
<path style="fill:none;stroke-width:5;stroke-linecap:round;stroke-linejoin:round;stroke:rgb(100%,100%,100%);stroke-opacity:1;stroke-miterlimit:4;" d="M 706.650134 586.880847 C 630.527334 606.228503 545.461083 603.879844 545.461083 603.879844 " transform="matrix(0.679617,0,0,0.678579,1000.931904,380.848922)"/>
<path style="fill:none;stroke-width:5;stroke-linecap:butt;stroke-linejoin:round;stroke:rgb(100%,100%,100%);stroke-opacity:1;stroke-miterlimit:4;" d="M 536.782027 551.708526 C 536.782027 551.708526 613.19796 508.810958 694.470716 479.539066 C 694.470716 479.539066 697.850375 376.341978 706.397234 346.062696 " transform="matrix(0.679617,0,0,0.678579,1000.931904,380.848922)"/>
<path style=" stroke:none;fill-rule:nonzero;fill:rgb(76.469421%,43.528748%,4.309082%);fill-opacity:1;" d="M 1367.753906 755.425781 C 1367.753906 755.425781 1338.261719 744.300781 1328.726562 749.894531 C 1318.292969 756 1298.976562 775.523438 1297.851562 778.808594 C 1296.722656 782.09375 1297.070312 785.519531 1297.273438 789.046875 C 1297.476562 792.578125 1332.816406 792.515625 1337.003906 792.269531 C 1341.1875 792.027344 1364.140625 794.503906 1368.011719 790.304688 C 1382.246094 774.90625 1367.753906 755.425781 1367.753906 755.425781 Z M 1367.753906 755.425781 "/>
<path style=" stroke:none;fill-rule:nonzero;fill:rgb(71.369934%,35.289001%,9.408569%);fill-opacity:1;" d="M 1423.730469 456.015625 C 1423.730469 456.015625 1415.839844 475.695312 1429.648438 502.160156 C 1429.648438 502.160156 1410.707031 529.089844 1380.714844 528.921875 C 1341.976562 528.710938 1359.015625 514.746094 1359.015625 514.746094 C 1359.015625 514.746094 1364.933594 505.285156 1363.773438 488.347656 Z M 1423.730469 456.015625 "/>
<g clip-path="url(#clip2)" clip-rule="nonzero">
<path style=" stroke:none;fill-rule:nonzero;fill:rgb(76.469421%,43.528748%,4.309082%);fill-opacity:1;" d="M 1417.671875 467.707031 C 1416.886719 471.386719 1416.769531 487.261719 1410.199219 491.730469 C 1401.6875 497.511719 1376.652344 506.574219 1357.71875 499.75 C 1355.292969 498.875 1343.25 463.507812 1344.035156 451.429688 C 1344.824219 439.347656 1345.089844 396.542969 1371.902344 385.777344 C 1398.710938 375.007812 1430.808594 381.023438 1439.753906 412.558594 C 1443.410156 425.453125 1440.394531 436.988281 1435.546875 446.15625 C 1435.546875 446.15625 1438.644531 451.707031 1433.679688 457.238281 C 1428.273438 463.269531 1417.671875 467.707031 1417.671875 467.707031 Z M 1417.671875 467.707031 "/>
</g>
<g clip-path="url(#clip3)" clip-rule="nonzero">
<path style=" stroke:none;fill-rule:nonzero;fill:rgb(44.709778%,17.649841%,32.939148%);fill-opacity:1;" d="M 1435.5625 446.148438 C 1429.253906 439.03125 1420.570312 451.6875 1420.570312 451.6875 L 1420.445312 452.363281 C 1418.035156 451.0625 1416.070312 449.269531 1414.5625 446.984375 C 1410.929688 441.5 1410.632812 435.398438 1411.113281 413.460938 C 1411.113281 413.460938 1375.902344 417.171875 1350.371094 411.046875 C 1354.292969 400.101562 1360.84375 390.199219 1371.914062 385.753906 C 1398.738281 374.984375 1430.832031 381.003906 1439.769531 412.539062 C 1443.425781 425.425781 1440.40625 436.980469 1435.5625 446.148438 Z M 1435.5625 446.148438 "/>
</g>
<path style=" stroke:none;fill-rule:nonzero;fill:rgb(94.119263%,88.238525%,83.139038%);fill-opacity:1;" d="M 1388.878906 518.511719 C 1393.785156 516.238281 1414.125 508.84375 1428.5 494.308594 C 1428.5 494.308594 1442.847656 508.199219 1442.976562 510.667969 C 1443.105469 513.136719 1412.589844 533.792969 1404 534.667969 Z M 1388.878906 518.511719 "/>
<path style=" stroke:none;fill-rule:nonzero;fill:rgb(94.119263%,88.238525%,83.139038%);fill-opacity:1;" d="M 1359.050781 507.355469 C 1360.410156 509.804688 1363.847656 515.585938 1373.667969 518.214844 C 1373.667969 518.214844 1366.476562 529.9375 1359.8125 533.617188 C 1359.8125 533.617188 1348.9375 528.867188 1345.980469 522.679688 C 1344.023438 518.601562 1359.050781 507.355469 1359.050781 507.355469 Z M 1359.050781 507.355469 "/>
<path style=" stroke:none;fill-rule:nonzero;fill:rgb(84.709167%,72.938538%,63.919067%);fill-opacity:1;" d="M 1373.667969 518.214844 L 1380.722656 528.886719 L 1388.878906 518.511719 L 1396.355469 526.492188 C 1396.355469 526.492188 1385.929688 531.453125 1366.449219 527.898438 Z M 1373.667969 518.214844 "/>
<g clip-path="url(#clip4)" clip-rule="nonzero">
<path style=" stroke:none;fill-rule:nonzero;fill:rgb(100%,100%,100%);fill-opacity:1;" d="M 1000.933594 790.710938 L 1371.175781 790.710938 C 1372.066406 790.710938 1372.949219 790.796875 1373.824219 790.972656 C 1374.699219 791.144531 1375.550781 791.402344 1376.375 791.742188 C 1377.199219 792.085938 1377.984375 792.503906 1378.726562 792.996094 C 1379.46875 793.492188 1380.152344 794.054688 1380.785156 794.683594 C 1381.417969 795.316406 1381.980469 796 1382.476562 796.742188 C 1382.972656 797.484375 1383.390625 798.265625 1383.730469 799.089844 C 1384.074219 799.910156 1384.332031 800.761719 1384.503906 801.632812 C 1384.679688 802.507812 1384.765625 803.390625 1384.765625 804.28125 L 1384.765625 807.878906 C 1384.765625 808.769531 1384.679688 809.652344 1384.503906 810.527344 C 1384.332031 811.398438 1384.074219 812.25 1383.730469 813.070312 C 1383.390625 813.894531 1382.972656 814.675781 1382.476562 815.417969 C 1381.980469 816.160156 1381.417969 816.84375 1380.785156 817.476562 C 1380.152344 818.105469 1379.46875 818.667969 1378.726562 819.164062 C 1377.984375 819.65625 1377.199219 820.074219 1376.375 820.417969 C 1375.550781 820.757812 1374.699219 821.015625 1373.824219 821.1875 C 1372.949219 821.363281 1372.066406 821.449219 1371.175781 821.449219 L 1001.613281 821.449219 "/>
</g>
<g clip-path="url(#clip5)" clip-rule="nonzero">
<path style="fill:none;stroke-width:6;stroke-linecap:butt;stroke-linejoin:miter;stroke:rgb(84.709167%,72.938538%,63.919067%);stroke-opacity:1;stroke-miterlimit:10;" d="M 0.00248647 604.00073 L 544.782852 604.00073 C 546.093332 604.00073 547.392317 604.127374 548.679806 604.386417 C 549.967296 604.639704 551.220298 605.019634 552.433067 605.520451 C 553.645836 606.027025 554.801128 606.642972 555.893195 607.368293 C 556.985261 608.099371 557.991112 608.928309 558.922243 609.855109 C 559.853373 610.787664 560.681045 611.795055 561.411005 612.888793 C 562.140966 613.982532 562.755972 615.133835 563.256023 616.34846 C 563.761823 617.557329 564.141172 618.81225 564.394072 620.095953 C 564.652719 621.385413 564.779169 622.686386 564.779169 623.998872 L 564.779169 629.300625 C 564.779169 630.613111 564.652719 631.914084 564.394072 633.203543 C 564.141172 634.487247 563.761823 635.742168 563.256023 636.951036 C 562.755972 638.165662 562.140966 639.316965 561.411005 640.410703 C 560.681045 641.504442 559.853373 642.511832 558.922243 643.444388 C 557.991112 644.371187 556.985261 645.200126 555.893195 645.931204 C 554.801128 646.656525 553.645836 647.272472 552.433067 647.779046 C 551.220298 648.279863 549.967296 648.659793 548.679806 648.91308 C 547.392317 649.172123 546.093332 649.298766 544.782852 649.298766 L 1.00259 649.298766 " transform="matrix(0.679617,0,0,0.678579,1000.931904,380.848922)"/>
</g>
<g clip-path="url(#clip6)" clip-rule="nonzero">
<path style=" stroke:none;fill-rule:nonzero;fill:rgb(100%,100%,100%);fill-opacity:1;" d="M 1293.140625 1295.675781 L 1293.140625 821.9375 L 1322.710938 821.9375 L 1322.710938 1295.660156 "/>
</g>
<path style=" stroke:none;fill-rule:nonzero;fill:rgb(94.119263%,88.238525%,83.139038%);fill-opacity:1;" d="M 1293.140625 831.355469 L 1293.140625 821.9375 L 1322.710938 821.9375 L 1322.710938 854.679688 Z M 1293.140625 831.355469 "/>
<g clip-path="url(#clip7)" clip-rule="nonzero">
<path style="fill:none;stroke-width:6;stroke-linecap:butt;stroke-linejoin:miter;stroke:rgb(84.709167%,72.938538%,63.919067%);stroke-opacity:1;stroke-miterlimit:10;" d="M 429.960657 1347.138353 L 429.960657 650.018331 L 473.470894 650.018331 L 473.470894 1347.121083 " transform="matrix(0.679617,0,0,0.678579,1000.931904,380.848922)"/>
</g>
<path style="fill-rule:nonzero;fill:rgb(100%,100%,100%);fill-opacity:1;stroke-width:5;stroke-linecap:butt;stroke-linejoin:miter;stroke:rgb(24.708557%,30.198669%,56.469727%);stroke-opacity:1;stroke-miterlimit:10;" d="M 447.830317 604.00073 L 229.997489 604.00073 C 228.296164 604.00073 226.623578 603.764713 224.985478 603.286922 C 223.34163 602.814888 221.801241 602.124106 220.358563 601.214576 C 218.915886 600.305046 217.628396 599.211308 216.496096 597.939117 C 215.358047 596.666927 214.426917 595.25658 213.691208 593.71959 L 143.281642 446.600273 C 143.109211 446.249126 142.965518 445.886465 142.844816 445.518048 C 142.718366 445.149631 142.620655 444.769701 142.545934 444.389771 C 142.471214 444.004084 142.419484 443.618397 142.390746 443.232711 C 142.367755 442.841267 142.362007 442.455581 142.384998 442.064138 C 142.407989 441.672694 142.453971 441.287008 142.528691 440.907078 C 142.597664 440.521391 142.695375 440.147217 142.816077 439.773044 C 142.931032 439.404626 143.074725 439.041966 143.241408 438.685062 C 143.402345 438.333914 143.592019 437.988523 143.798937 437.660402 C 144.005855 437.33228 144.235764 437.015672 144.482916 436.716333 C 144.730068 436.411237 144.994463 436.129168 145.281849 435.864368 C 145.563487 435.593812 145.862369 435.346282 146.178493 435.116021 C 146.494618 434.88576 146.822238 434.678526 147.161353 434.488561 C 147.506216 434.304352 147.856827 434.137413 148.218934 433.9935 C 148.58104 433.849587 148.948894 433.7287 149.328244 433.630839 C 149.707593 433.532979 150.086943 433.4639 150.47204 433.412092 C 150.862885 433.36604 151.247982 433.337257 151.638827 433.337257 L 369.471655 433.337257 C 371.17298 433.337257 372.845566 433.579031 374.489414 434.051065 C 376.127514 434.5231 377.667903 435.213882 379.110581 436.123412 C 380.553258 437.032941 381.840747 438.12668 382.973048 439.39887 C 384.111097 440.676817 385.042227 442.081407 385.777935 443.618397 L 456.187501 590.76074 C 456.359933 591.111888 456.503626 591.474548 456.624328 591.842965 C 456.74503 592.211383 456.842741 592.585556 456.917462 592.971243 C 456.992182 593.351173 457.043912 593.73686 457.066902 594.122546 C 457.095641 594.51399 457.095641 594.899676 457.07265 595.291119 C 457.049659 595.676806 457.003678 596.062493 456.928957 596.448179 C 456.859985 596.82811 456.762273 597.20804 456.641571 597.576457 C 456.526617 597.944874 456.382924 598.307535 456.21624 598.664439 C 456.055304 599.015586 455.865629 599.355221 455.658711 599.683342 C 455.451793 600.011464 455.221884 600.328072 454.974733 600.627411 C 454.727581 600.92675 454.463185 601.214576 454.181547 601.479376 C 453.894161 601.744176 453.59528 601.997462 453.284903 602.221966 C 452.968778 602.452227 452.641158 602.659462 452.302043 602.849427 C 451.95718 603.039392 451.606569 603.200574 451.244462 603.344487 C 450.882356 603.4884 450.514502 603.609287 450.135153 603.707148 C 449.761551 603.805009 449.376454 603.879844 448.991356 603.925896 C 448.606259 603.977704 448.221162 604.00073 447.830317 604.00073 Z M 447.830317 604.00073 " transform="matrix(0.679617,0,0,0.678579,1000.931904,380.848922)"/>
<path style=" stroke:none;fill-rule:nonzero;fill:rgb(94.119263%,88.238525%,83.139038%);fill-opacity:1;" d="M 1305.046875 789.210938 L 1159.390625 789.210938 C 1158.304688 789.171875 1157.246094 788.988281 1156.210938 788.65625 C 1155.175781 788.328125 1154.207031 787.867188 1153.296875 787.273438 C 1152.390625 786.679688 1151.578125 785.972656 1150.863281 785.15625 C 1150.148438 784.339844 1149.558594 783.445312 1149.089844 782.464844 L 1128.019531 738.460938 L 1128.339844 737.902344 L 1288.050781 737.902344 L 1288.316406 738.453125 L 1308.464844 780.523438 C 1311.515625 785.4375 1309.527344 789.210938 1305.046875 789.210938 Z M 1305.046875 789.210938 "/>
<path style="fill-rule:nonzero;fill:rgb(100%,100%,100%);fill-opacity:1;stroke-width:5;stroke-linecap:butt;stroke-linejoin:round;stroke:rgb(24.708557%,30.198669%,56.469727%);stroke-opacity:1;stroke-miterlimit:4;" d="M 425.000374 525.861762 L 385.151434 595.440789 C 382.151124 600.67922 375.799894 604.018 368.82791 604.018 L 151.00083 604.018 C 144.178287 604.018 139.700813 598.077274 142.637898 592.94246 L 181.078647 525.861762 Z M 425.000374 525.861762 " transform="matrix(0.679617,0,0,0.678579,1000.931904,380.848922)"/>
<path style=" stroke:none;fill-rule:nonzero;fill:rgb(24.708557%,30.198669%,56.469727%);fill-opacity:1;" d="M 368.972656 1220.449219 C 370.304688 1230.472656 355.550781 1248.117188 355.550781 1257.730469 C 355.550781 1261.265625 368.988281 1266.050781 381.503906 1272.195312 C 396.808594 1279.707031 411.546875 1288.414062 416.839844 1288.414062 C 420.265625 1288.414062 447.621094 1288.414062 451.035156 1288.414062 C 451.035156 1288.414062 451.078125 1268.671875 431.742188 1265.585938 C 410.945312 1262.269531 399.808594 1219.832031 399.808594 1219.832031 C 393.652344 1219.953125 375.144531 1220.324219 368.972656 1220.449219 Z M 368.972656 1220.449219 "/>
<path style="fill:none;stroke-width:6;stroke-linecap:butt;stroke-linejoin:miter;stroke:rgb(82.348633%,66.668701%,57.249451%);stroke-opacity:1;stroke-miterlimit:4;" d="M 365.549712 613.029361 C 376.708959 618.510696 406.978808 634.980343 410.859047 634.980343 C 412.531367 634.980343 420.838838 634.980343 435.801403 634.980343 " transform="matrix(1.37113,0,0,1.37113,-146.517048,418.515495)"/>
<path style="fill:none;stroke-width:6;stroke-linecap:butt;stroke-linejoin:miter;stroke:rgb(82.348633%,66.668701%,57.249451%);stroke-opacity:1;stroke-miterlimit:4;" d="M 401.141357 609.610648 L 410.229434 606.080828 " transform="matrix(1.37113,0,0,1.37113,-146.517048,418.515495)"/>
<path style="fill:none;stroke-width:6;stroke-linecap:butt;stroke-linejoin:miter;stroke:rgb(82.348633%,66.668701%,57.249451%);stroke-opacity:1;stroke-miterlimit:4;" d="M 396.058871 604.0296 L 407.181082 599.981275 " transform="matrix(1.37113,0,0,1.37113,-146.517048,418.515495)"/>
<path style=" stroke:none;fill-rule:nonzero;fill:rgb(82.348633%,66.668701%,57.249451%);fill-opacity:1;" d="M 303.296875 865.886719 C 303.296875 865.886719 435.570312 861.117188 491.757812 895.738281 C 516.464844 910.96875 408.640625 1224.671875 408.640625 1224.671875 C 408.640625 1224.671875 373.523438 1225.261719 354.808594 1215.894531 C 354.808594 1215.894531 329.539062 1043.132812 392.1875 974.808594 C 392.1875 974.808594 247.355469 994.953125 182.828125 949.003906 C 206.917969 932.386719 279.207031 882.519531 303.296875 865.886719 Z M 303.296875 865.886719 "/>
<path style=" stroke:none;fill-rule:nonzero;fill:rgb(24.708557%,30.198669%,56.469727%);fill-opacity:1;" d="M 465.046875 1225.316406 C 466.363281 1235.351562 452.308594 1253 452.308594 1262.609375 C 452.308594 1266.132812 465.0625 1270.917969 477.554688 1277.074219 C 492.867188 1284.578125 507.59375 1293.296875 512.886719 1293.296875 C 516.316406 1293.296875 543.667969 1293.296875 547.097656 1293.296875 C 547.097656 1293.296875 547.125 1273.539062 527.804688 1270.46875 C 506.992188 1267.136719 495.871094 1224.710938 495.871094 1224.710938 C 489.699219 1224.835938 471.21875 1225.191406 465.046875 1225.316406 Z M 465.046875 1225.316406 "/>
<path style="fill:none;stroke-width:6;stroke-linecap:butt;stroke-linejoin:miter;stroke:rgb(82.348633%,66.668701%,57.249451%);stroke-opacity:1;stroke-miterlimit:4;" d="M 436.120483 616.559181 C 447.27973 622.040517 477.039621 638.510164 480.939802 638.510164 C 482.600727 638.510164 490.911047 638.510164 505.87931 638.510164 " transform="matrix(1.37113,0,0,1.37113,-146.517048,418.515495)"/>
<path style="fill:none;stroke-width:6;stroke-linecap:butt;stroke-linejoin:miter;stroke:rgb(82.348633%,66.668701%,57.249451%);stroke-opacity:1;stroke-miterlimit:4;" d="M 475.780396 611.639084 L 480.290247 609.630591 " transform="matrix(1.37113,0,0,1.37113,-146.517048,418.515495)"/>
<path style="fill:none;stroke-width:6;stroke-linecap:butt;stroke-linejoin:miter;stroke:rgb(82.348633%,66.668701%,57.249451%);stroke-opacity:1;stroke-miterlimit:4;" d="M 470.700759 606.060885 L 477.250442 603.539585 " transform="matrix(1.37113,0,0,1.37113,-146.517048,418.515495)"/>
<path style=" stroke:none;fill-rule:nonzero;fill:rgb(84.709167%,72.938538%,63.919067%);fill-opacity:1;" d="M 163.5625 958.808594 C 243.046875 1020.414062 436.160156 994.074219 436.160156 994.074219 C 436.160156 994.074219 400.453125 1056.886719 453.132812 1230.15625 C 453.132812 1230.15625 477.703125 1234.253906 503.453125 1230.15625 C 503.453125 1230.15625 506.976562 1100.007812 525.707031 960.234375 C 529.230469 933.867188 435.570312 892.816406 292.191406 887.265625 C 266.453125 901.566406 189.285156 944.496094 163.5625 958.808594 Z M 163.5625 958.808594 "/>
<g clip-path="url(#clip8)" clip-rule="nonzero">
<path style=" stroke:none;fill-rule:nonzero;fill:rgb(12.939453%,12.939453%,12.159729%);fill-opacity:1;" d="M 108.226562 450.175781 C 121.675781 419.40625 151.484375 414.347656 169.898438 421.242188 C 169.898438 421.242188 186.542969 414.648438 211.167969 437.863281 C 234.847656 460.210938 248.191406 488.019531 237.113281 505.019531 C 223.152344 526.464844 218.574219 525.792969 211.910156 534.566406 C 205.988281 542.328125 191.070312 562.9375 171.296875 552.433594 C 149.539062 540.847656 126.777344 527.902344 126.777344 527.902344 C 120.675781 521.40625 94.773438 480.941406 108.226562 450.175781 Z M 108.226562 450.175781 "/>
</g>
<path style=" stroke:none;fill-rule:nonzero;fill:rgb(100%,81.17981%,78.819275%);fill-opacity:1;" d="M 105.796875 559.578125 C 111.460938 562.183594 156.734375 583.09375 162.398438 585.699219 C 162.398438 585.699219 171.734375 557.464844 176.234375 548.140625 C 179.359375 541.628906 154.871094 523.859375 146.878906 507.171875 C 142.378906 497.808594 138.144531 496.109375 136.222656 497.09375 C 125.445312 502.578125 133.535156 518.855469 133.535156 518.855469 C 119.824219 543.605469 111.351562 551.433594 105.796875 559.578125 Z M 105.796875 559.578125 "/>
<path style=" stroke:none;fill-rule:nonzero;fill:rgb(98.039246%,71.369934%,67.83905%);fill-opacity:1;" d="M 148.796875 538.820312 C 153.144531 542.289062 163.496094 548.71875 173.820312 553.558594 C 171.488281 559.125 168.691406 567.0625 166.457031 573.015625 C 157.285156 567.28125 145.902344 557.574219 142.738281 543.054688 C 139.417969 527.835938 143.804688 519.183594 143.804688 519.183594 C 143.296875 521.390625 141.816406 533.265625 148.796875 538.820312 Z M 148.796875 538.820312 "/>
<path style=" stroke:none;fill-rule:nonzero;fill:rgb(100%,81.17981%,78.819275%);fill-opacity:1;" d="M 148.796875 538.820312 C 155.777344 544.371094 178.234375 557.589844 191.191406 559.589844 C 204.164062 561.578125 218.875 523.679688 219.875 508.957031 C 220.863281 494.242188 225.183594 456.589844 195.195312 456.589844 C 181.992188 456.589844 146.300781 508.460938 143.820312 519.183594 C 143.296875 521.390625 141.816406 533.265625 148.796875 538.820312 Z M 148.796875 538.820312 "/>
<path style=" stroke:none;fill-rule:nonzero;fill:rgb(94.119263%,88.238525%,83.139038%);fill-opacity:1;" d="M 303.335938 865.886719 C 303.335938 865.886719 220.824219 802.964844 181.882812 611.886719 C 181.472656 611.859375 178.167969 611.558594 177.753906 611.53125 C 177.753906 611.53125 171.902344 765.660156 292.21875 887.265625 C 294.4375 882.984375 301.566406 877.019531 303.335938 865.886719 Z M 303.335938 865.886719 "/>
<path style=" stroke:none;fill-rule:nonzero;fill:rgb(96.078491%,21.958923%,21.958923%);fill-opacity:0.7686;" d="M 181.773438 611.570312 C 209.992188 626.722656 259.980469 725.128906 259.980469 725.128906 C 255.5 729.941406 219.601562 768.375 215.117188 773.171875 C 245.585938 833.667969 292.21875 887.265625 292.21875 887.265625 C 251.78125 941.683594 163.5625 958.808594 163.5625 958.808594 C 163.5625 958.808594 51.625 868.382812 51.625 711.222656 C 51.625 627.695312 79.445312 598.515625 86.453125 588.851562 C 105.511719 593.402344 162.714844 607.019531 181.773438 611.570312 Z M 181.773438 611.570312 "/>
<path style=" stroke:none;fill-rule:nonzero;fill:rgb(96.078491%,21.958923%,21.958923%);fill-opacity:0.651;" d="M 181.8125 611.886719 C 181.8125 611.886719 181.238281 591.976562 176.699219 587.890625 C 172.160156 583.792969 115.902344 556.3125 104.785156 558.21875 C 93.648438 560.125 81.445312 587.890625 81.445312 587.890625 C 101.519531 592.691406 132.972656 608.074219 181.8125 611.886719 Z M 181.8125 611.886719 "/>
<path style="fill:none;stroke-width:4;stroke-linecap:butt;stroke-linejoin:miter;stroke:rgb(93.728638%,5.879211%,31.759644%);stroke-opacity:1;stroke-miterlimit:4;" d="M 223.479419 227.250456 L 263.749003 258.659876 " transform="matrix(1.37113,0,0,1.37113,-146.517048,418.515495)"/>
<path style="fill-rule:nonzero;fill:rgb(100%,100%,100%);fill-opacity:1;stroke-width:5;stroke-linecap:butt;stroke-linejoin:miter;stroke:rgb(100%,69.018555%,0%);stroke-opacity:1;stroke-miterlimit:4;" d="M 447.168622 250.95068 C 455.920525 250.241297 463.390412 244.369658 466.151022 236.050791 C 468.888841 227.820241 490.760054 161.990085 493.500722 153.77093 C 496.261332 145.440668 503.69988 139.130294 512.420446 138.420912 C 508.018854 138.779876 472.828907 141.648746 468.438711 142.01056 C 459.701052 142.719942 452.259654 149.030316 449.51044 157.360578 C 446.781168 165.591129 424.909955 231.421285 422.169287 239.64044 C 419.40013 247.970702 413.710823 253.691348 404.958919 254.40073 C 413.40029 253.71129 438.7301 251.64012 447.168622 250.95068 Z M 447.168622 250.95068 " transform="matrix(1.37113,0,0,1.37113,-146.517048,418.515495)"/>
<path style="fill-rule:nonzero;fill:rgb(100%,100%,100%);fill-opacity:1;stroke-width:5;stroke-linecap:butt;stroke-linejoin:miter;stroke:rgb(100%,69.018555%,0%);stroke-opacity:1;stroke-miterlimit:4;" d="M 448.550351 254.078802 C 457.319349 253.990485 465.190934 248.668689 468.541272 240.56919 C 471.860272 232.54946 498.38948 168.459998 501.699934 160.448815 C 505.058819 152.349316 512.930404 147.030369 521.699401 146.939203 C 517.289262 146.979088 481.991056 147.340902 477.569522 147.380787 C 468.800524 147.469104 460.928939 152.779504 457.578601 160.890399 C 454.259601 168.898733 427.730393 233.010986 424.411393 241.030716 C 421.061054 249.130215 413.189469 254.449162 404.420472 254.528932 C 413.249297 254.440615 439.718677 254.169967 448.550351 254.078802 Z M 448.550351 254.078802 " transform="matrix(1.37113,0,0,1.37113,-146.517048,418.515495)"/>
<path style=" stroke:none;fill-rule:nonzero;fill:rgb(100%,81.17981%,78.819275%);fill-opacity:1;" d="M 284.074219 804.308594 C 298.839844 804.308594 417.964844 714.96875 417.964844 714.96875 C 417.964844 714.96875 449.226562 711.472656 457.945312 705.492188 C 466.679688 699.5 482.035156 667.335938 480.789062 662.589844 C 475.441406 662.90625 470.765625 666.277344 468.792969 671.242188 C 465.597656 678.6875 453.476562 679.222656 453.476562 679.222656 C 453.738281 678.316406 455.820312 671.050781 456.082031 670.144531 C 456.082031 670.144531 444.726562 671.75 436.078125 672.078125 C 436.078125 672.078125 415.589844 693.371094 413.464844 694.195312 C 411.328125 695.019531 285.390625 742.402344 278.203125 747.230469 C 271.035156 752.054688 240.484375 788.941406 240.484375 788.941406 C 249.203125 792.011719 253.289062 804.378906 284.074219 804.308594 Z M 284.074219 804.308594 "/>
<path style=" stroke:none;fill-rule:nonzero;fill:rgb(98.81897%,5.099487%,26.269531%);fill-opacity:1;" d="M 259.980469 725.128906 C 254.523438 725.222656 210.539062 769.414062 214.242188 777.601562 C 217.941406 785.800781 231.695312 797.195312 238.234375 792.132812 C 244.761719 787.074219 280.550781 743.378906 280.550781 743.378906 C 282.414062 741.03125 265.453125 725.03125 259.980469 725.128906 Z M 259.980469 725.128906 "/>
<path style="fill:none;stroke-width:6;stroke-linecap:butt;stroke-linejoin:miter;stroke:rgb(100%,69.018555%,0%);stroke-opacity:1;stroke-miterlimit:4;" d="M 119.781325 219.569749 C 119.781325 219.569749 135.550136 363.879298 223.909607 407.188686 C 277.329838 433.370325 336.371001 436.828923 374.700465 435.458589 " transform="matrix(1.37113,0,0,1.37113,-146.517048,418.515495)"/>
<path style="fill:none;stroke-width:6;stroke-linecap:butt;stroke-linejoin:miter;stroke:rgb(100%,69.018555%,0%);stroke-opacity:1;stroke-miterlimit:4;" d="M 140.339182 301.550472 C 169.389691 301.550472 185.540258 301.550472 188.759546 301.550472 C 238.550243 301.550472 281.030594 337.540967 289.209863 386.650771 C 289.691332 389.550979 292.118618 404.089054 296.468929 430.270693 " transform="matrix(1.37113,0,0,1.37113,-146.517048,418.515495)"/>
<path style="fill:none;stroke-width:6;stroke-linecap:butt;stroke-linejoin:miter;stroke:rgb(100%,69.018555%,0%);stroke-opacity:1;stroke-miterlimit:4;" d="M 306.448721 431.880337 C 306.448721 504.120579 306.448721 544.250565 306.448721 552.270294 C 306.460116 559.649015 302.539993 566.480742 296.169792 570.198592 C 293.548779 571.731315 272.660446 583.938967 270.050829 585.460294 C 263.680628 589.189539 259.760505 596.009871 259.760505 603.388592 " transform="matrix(1.37113,0,0,1.37113,-146.517048,418.515495)"/>
<path style="fill-rule:nonzero;fill:rgb(100%,100%,100%);fill-opacity:1;stroke-width:6;stroke-linecap:butt;stroke-linejoin:miter;stroke:rgb(100%,69.018555%,0%);stroke-opacity:1;stroke-miterlimit:4;" d="M 259.951383 609.559368 C 253.820492 609.559368 248.849114 614.530745 248.849114 620.658787 C 248.849114 626.789678 253.820492 631.761056 259.951383 631.761056 C 266.079425 631.761056 271.050803 626.789678 271.050803 620.658787 C 271.050803 614.530745 266.079425 609.559368 259.951383 609.559368 Z M 259.951383 609.559368 " transform="matrix(1.37113,0,0,1.37113,-146.517048,418.515495)"/>
<path style="fill:none;stroke-width:6;stroke-linecap:butt;stroke-linejoin:miter;stroke:rgb(100%,69.018555%,0%);stroke-opacity:1;stroke-miterlimit:4;" d="M 249.70949 607.778788 C 255.370308 602.129366 264.529609 602.129366 270.190427 607.778788 " transform="matrix(1.37113,0,0,1.37113,-146.517048,418.515495)"/>
<path style="fill:none;stroke-width:6;stroke-linecap:butt;stroke-linejoin:miter;stroke:rgb(100%,69.018555%,0%);stroke-opacity:1;stroke-miterlimit:4;" d="M 313.499815 433.159505 C 313.499815 504.630537 313.499815 544.330335 313.499815 552.270294 C 313.499815 559.649015 317.419939 566.480742 323.790139 570.198592 C 326.399757 571.731315 347.299485 583.938967 349.909102 585.460294 C 356.279303 589.189539 360.19088 596.009871 360.19088 603.388592 " transform="matrix(1.37113,0,0,1.37113,-146.517048,418.515495)"/>
<path style="fill-rule:nonzero;fill:rgb(100%,100%,100%);fill-opacity:1;stroke-width:6;stroke-linecap:butt;stroke-linejoin:miter;stroke:rgb(100%,69.018555%,0%);stroke-opacity:1;stroke-miterlimit:4;" d="M 360.000002 609.559368 C 353.869111 609.559368 348.900582 614.530745 348.900582 620.658787 C 348.900582 626.789678 353.869111 631.761056 360.000002 631.761056 C 366.130893 631.761056 371.099421 626.789678 371.099421 620.658787 C 371.099421 614.530745 366.130893 609.559368 360.000002 609.559368 Z M 360.000002 609.559368 " transform="matrix(1.37113,0,0,1.37113,-146.517048,418.515495)"/>
<path style="fill:none;stroke-width:6;stroke-linecap:butt;stroke-linejoin:miter;stroke:rgb(100%,69.018555%,0%);stroke-opacity:1;stroke-miterlimit:4;" d="M 370.239045 607.778788 C 364.581076 602.129366 355.418927 602.129366 349.769505 607.778788 " transform="matrix(1.37113,0,0,1.37113,-146.517048,418.515495)"/>
<use xlink:href="#surface5" transform="matrix(1,0,0,1,259,383)" mask="url(#mask0)"/>
<use xlink:href="#surface8" transform="matrix(1,0,0,1,1346,201)" mask="url(#mask1)"/>
<use xlink:href="#surface11" transform="matrix(1,0,0,1,1164,372)" mask="url(#mask2)"/>
<use xlink:href="#surface14" transform="matrix(1,0,0,1,1514,372)" mask="url(#mask3)"/>
<use xlink:href="#surface17" transform="matrix(1,0,0,1,629,981)" mask="url(#mask4)"/>
</g>
</svg>
